<svg viewBox="0 0 26 27" fill="none" xmlns="http://www.w3.org/2000/svg">
<rect x="10.625" y="0.792969" width="4.25" height="23.375" fill="white"/>
<rect x="2.125" y="2.91797" width="4.25" height="17" fill="white"/>
<rect x="6.375" y="0.792969" width="4.25" height="21.25" fill="white"/>
<rect x="14.875" y="0.792969" width="4.25" height="21.25" fill="white"/>
<rect x="19.125" y="2.91797" width="4.25" height="17" fill="white"/>
<rect x="19.125" y="19.918" width="4.25" height="4.25" fill="white"/>
<rect x="2.125" y="19.918" width="4.25" height="4.25" fill="white"/>
<rect x="6.375" y="22.043" width="4.25" height="4.25" fill="white"/>
<rect x="14.875" y="22.043" width="4.25" height="4.25" fill="white"/>
<rect y="15.668" width="4.25" height="4.25" fill="white"/>
<rect x="21.25" y="15.668" width="4.25" height="4.25" fill="white"/>
<rect x="21.25" y="7.16797" width="4.25" height="4.25" fill="white"/>
<rect y="7.16797" width="4.25" height="4.25" fill="white"/>
<rect x="10.625" y="22.043" width="4.25" height="4.25" fill="white"/>
<rect y="11.418" width="4.25" height="4.25" fill="white"/>
<rect x="21.25" y="11.418" width="4.25" height="4.25" fill="white"/>
</svg>
