<svg viewBox="0 0 24 20" fill="none" xmlns="http://www.w3.org/2000/svg">
<g clip-path="url(#clip0_901_14421)">
<path d="M6.19452 0H5.41992V0.800435H6.19452V0Z" fill="black"/>
<path d="M6.96796 0H6.19336V0.800435H6.96796V0Z" fill="black"/>
<path d="M7.7414 0H6.9668V0.800435H7.7414V0Z" fill="black"/>
<path d="M8.51679 0H7.74219V0.800435H8.51679V0Z" fill="black"/>
<path d="M9.29023 0H8.51562V0.800435H9.29023V0Z" fill="black"/>
<path d="M10.0656 0H9.29102V0.800435H10.0656V0Z" fill="black"/>
<path d="M10.8391 0H10.0645V0.800435H10.8391V0Z" fill="black"/>
<path d="M5.41913 0.800781H4.64453V1.60122H5.41913V0.800781Z" fill="black"/>
<path d="M6.19452 0.800781H5.41992V1.60122H6.19452V0.800781Z" fill="#F2F2F2"/>
<path d="M6.96796 0.800781H6.19336V1.60122H6.96796V0.800781Z" fill="#F2F2F2"/>
<path d="M7.7414 0.800781H6.9668V1.60122H7.7414V0.800781Z" fill="#F2F2F2"/>
<path d="M8.51679 0.800781H7.74219V1.60122H8.51679V0.800781Z" fill="#F2F2F2"/>
<path d="M9.29023 0.800781H8.51562V1.60122H9.29023V0.800781Z" fill="#F2F2F2"/>
<path d="M10.0656 0.800781H9.29102V1.60122H10.0656V0.800781Z" fill="#F2F2F2"/>
<path d="M10.8391 0.800781H10.0645V1.60122H10.8391V0.800781Z" fill="#F2F2F2"/>
<path d="M11.6144 0.800781H10.8398V1.60122H11.6144V0.800781Z" fill="black"/>
<path d="M4.64569 1.59961H3.87109V2.40004H4.64569V1.59961Z" fill="black"/>
<path d="M5.41913 1.59961H4.64453V2.40004H5.41913V1.59961Z" fill="#F2F2F2"/>
<path d="M6.19452 1.59961H5.41992V2.40004H6.19452V1.59961Z" fill="#FFCF00"/>
<path d="M6.96796 1.59961H6.19336V2.40004H6.96796V1.59961Z" fill="#FFCF00"/>
<path d="M7.7414 1.59961H6.9668V2.40004H7.7414V1.59961Z" fill="#FFCF00"/>
<path d="M8.51679 1.59961H7.74219V2.40004H8.51679V1.59961Z" fill="#FFCF00"/>
<path d="M9.29023 1.59961H8.51562V2.40004H9.29023V1.59961Z" fill="#FFCF00"/>
<path d="M10.0656 1.59961H9.29102V2.40004H10.0656V1.59961Z" fill="#FFCF00"/>
<path d="M10.8391 1.59961H10.0645V2.40004H10.8391V1.59961Z" fill="#FFCF00"/>
<path d="M11.6144 1.59961H10.8398V2.40004H11.6144V1.59961Z" fill="#F2F2F2"/>
<path d="M12.3879 1.59961H11.6133V2.40004H12.3879V1.59961Z" fill="black"/>
<path d="M3.8703 2.40039H3.0957V3.20083H3.8703V2.40039Z" fill="black"/>
<path d="M4.64569 2.40039H3.87109V3.20083H4.64569V2.40039Z" fill="#F2F2F2"/>
<path d="M5.41913 2.40039H4.64453V3.20083H5.41913V2.40039Z" fill="#FFCF00"/>
<path d="M6.19452 2.40039H5.41992V3.20083H6.19452V2.40039Z" fill="#FFCF00"/>
<path d="M6.96796 2.40039H6.19336V3.20083H6.96796V2.40039Z" fill="#FFCF00"/>
<path d="M7.7414 2.40039H6.9668V3.20083H7.7414V2.40039Z" fill="#FFCF00"/>
<path d="M8.51679 2.40039H7.74219V3.20083H8.51679V2.40039Z" fill="#FFCF00"/>
<path d="M9.29023 2.40039H8.51562V3.20083H9.29023V2.40039Z" fill="#FFCF00"/>
<path d="M10.0656 2.40039H9.29102V3.20083H10.0656V2.40039Z" fill="#FFCF00"/>
<path d="M10.8391 2.40039H10.0645V3.20083H10.8391V2.40039Z" fill="#FFCF00"/>
<path d="M11.6144 2.40039H10.8398V3.20083H11.6144V2.40039Z" fill="#FFCF00"/>
<path d="M12.3879 2.40039H11.6133V3.20083H12.3879V2.40039Z" fill="#F2F2F2"/>
<path d="M13.1613 2.40039H12.3867V3.20083H13.1613V2.40039Z" fill="black"/>
<path d="M13.9348 2.40039H13.1602V3.20083H13.9348V2.40039Z" fill="black"/>
<path d="M14.7101 2.40039H13.9355V3.20083H14.7101V2.40039Z" fill="black"/>
<path d="M15.4836 2.40039H14.709V3.20083H15.4836V2.40039Z" fill="black"/>
<path d="M16.259 2.40039H15.4844V3.20083H16.259V2.40039Z" fill="black"/>
<path d="M17.0324 2.40039H16.2578V3.20083H17.0324V2.40039Z" fill="black"/>
<path d="M17.8078 2.40039H17.0332V3.20083H17.8078V2.40039Z" fill="black"/>
<path d="M18.5812 2.40039H17.8066V3.20083H18.5812V2.40039Z" fill="black"/>
<path d="M19.3547 2.40039H18.5801V3.20083H19.3547V2.40039Z" fill="black"/>
<path d="M20.1301 2.40039H19.3555V3.20083H20.1301V2.40039Z" fill="black"/>
<path d="M20.9035 2.40039H20.1289V3.20083H20.9035V2.40039Z" fill="black"/>
<path d="M21.6789 2.40039H20.9043V3.20083H21.6789V2.40039Z" fill="black"/>
<path d="M22.4523 2.40039H21.6777V3.20083H22.4523V2.40039Z" fill="black"/>
<path d="M3.8703 3.19922H3.0957V3.99965H3.8703V3.19922Z" fill="black"/>
<path d="M4.64569 3.19922H3.87109V3.99965H4.64569V3.19922Z" fill="#F2F2F2"/>
<path d="M5.41913 3.19922H4.64453V3.99965H5.41913V3.19922Z" fill="#FFCF00"/>
<path d="M6.19452 3.19922H5.41992V3.99965H6.19452V3.19922Z" fill="#FFCF00"/>
<path d="M6.96796 3.19922H6.19336V3.99965H6.96796V3.19922Z" fill="#FFCF00"/>
<path d="M7.7414 3.19922H6.9668V3.99965H7.7414V3.19922Z" fill="#FFCF00"/>
<path d="M8.51679 3.19922H7.74219V3.99965H8.51679V3.19922Z" fill="#FFCF00"/>
<path d="M9.29023 3.19922H8.51562V3.99965H9.29023V3.19922Z" fill="#FFCF00"/>
<path d="M10.0656 3.19922H9.29102V3.99965H10.0656V3.19922Z" fill="#FFCF00"/>
<path d="M10.8391 3.19922H10.0645V3.99965H10.8391V3.19922Z" fill="#FFCF00"/>
<path d="M11.6144 3.19922H10.8398V3.99965H11.6144V3.19922Z" fill="#FFCF00"/>
<path d="M12.3879 3.19922H11.6133V3.99965H12.3879V3.19922Z" fill="#FFCF00"/>
<path d="M13.1613 3.19922H12.3867V3.99965H13.1613V3.19922Z" fill="#F2F2F2"/>
<path d="M13.9348 3.19922H13.1602V3.99965H13.9348V3.19922Z" fill="#F2F2F2"/>
<path d="M14.7101 3.19922H13.9355V3.99965H14.7101V3.19922Z" fill="#F2F2F2"/>
<path d="M15.4836 3.19922H14.709V3.99965H15.4836V3.19922Z" fill="#F2F2F2"/>
<path d="M16.259 3.19922H15.4844V3.99965H16.259V3.19922Z" fill="#F2F2F2"/>
<path d="M17.0324 3.19922H16.2578V3.99965H17.0324V3.19922Z" fill="#F2F2F2"/>
<path d="M17.8078 3.19922H17.0332V3.99965H17.8078V3.19922Z" fill="#F2F2F2"/>
<path d="M18.5812 3.19922H17.8066V3.99965H18.5812V3.19922Z" fill="#F2F2F2"/>
<path d="M19.3547 3.19922H18.5801V3.99965H19.3547V3.19922Z" fill="#F2F2F2"/>
<path d="M20.1301 3.19922H19.3555V3.99965H20.1301V3.19922Z" fill="#F2F2F2"/>
<path d="M20.9035 3.19922H20.1289V3.99965H20.9035V3.19922Z" fill="#F2F2F2"/>
<path d="M21.6789 3.19922H20.9043V3.99965H21.6789V3.19922Z" fill="#F2F2F2"/>
<path d="M22.4523 3.19922H21.6777V3.99965H22.4523V3.19922Z" fill="#F2F2F2"/>
<path d="M23.2258 3.19922H22.4512V3.99965H23.2258V3.19922Z" fill="black"/>
<path d="M3.8703 4H3.0957V4.80044H3.8703V4Z" fill="black"/>
<path d="M4.64569 4H3.87109V4.80044H4.64569V4Z" fill="#F2F2F2"/>
<path d="M5.41913 4H4.64453V4.80044H5.41913V4Z" fill="#FFCF00"/>
<path d="M6.19452 4H5.41992V4.80044H6.19452V4Z" fill="#FFCF00"/>
<path d="M6.96796 4H6.19336V4.80044H6.96796V4Z" fill="#FFCF00"/>
<path d="M7.7414 4H6.9668V4.80044H7.7414V4Z" fill="#FFCF00"/>
<path d="M8.51679 4H7.74219V4.80044H8.51679V4Z" fill="#FFCF00"/>
<path d="M9.29023 4H8.51562V4.80044H9.29023V4Z" fill="#FFCF00"/>
<path d="M10.0656 4H9.29102V4.80044H10.0656V4Z" fill="#FFCF00"/>
<path d="M10.8391 4H10.0645V4.80044H10.8391V4Z" fill="#FFCF00"/>
<path d="M11.6144 4H10.8398V4.80044H11.6144V4Z" fill="#FFCF00"/>
<path d="M12.3879 4H11.6133V4.80044H12.3879V4Z" fill="#FFCF00"/>
<path d="M13.1613 4H12.3867V4.80044H13.1613V4Z" fill="#FFCF00"/>
<path d="M13.9348 4H13.1602V4.80044H13.9348V4Z" fill="#FFCF00"/>
<path d="M14.7101 4H13.9355V4.80044H14.7101V4Z" fill="#FFCF00"/>
<path d="M15.4836 4H14.709V4.80044H15.4836V4Z" fill="#FFCF00"/>
<path d="M16.259 4H15.4844V4.80044H16.259V4Z" fill="#FFCF00"/>
<path d="M17.0324 4H16.2578V4.80044H17.0324V4Z" fill="#FFCF00"/>
<path d="M17.8078 4H17.0332V4.80044H17.8078V4Z" fill="#FFCF00"/>
<path d="M18.5812 4H17.8066V4.80044H18.5812V4Z" fill="#FFCF00"/>
<path d="M19.3547 4H18.5801V4.80044H19.3547V4Z" fill="#FFCF00"/>
<path d="M20.1301 4H19.3555V4.80044H20.1301V4Z" fill="#FFCF00"/>
<path d="M20.9035 4H20.1289V4.80044H20.9035V4Z" fill="#FFCF00"/>
<path d="M21.6789 4H20.9043V4.80044H21.6789V4Z" fill="#FFCF00"/>
<path d="M22.4523 4H21.6777V4.80044H22.4523V4Z" fill="#FFCF00"/>
<path d="M23.2258 4H22.4512V4.80044H23.2258V4Z" fill="#F2F2F2"/>
<path d="M23.9992 4H23.2246V4.80044H23.9992V4Z" fill="black"/>
<path d="M3.8703 4.80078H3.0957V5.60122H3.8703V4.80078Z" fill="black"/>
<path d="M4.64569 4.80078H3.87109V5.60122H4.64569V4.80078Z" fill="#F2F2F2"/>
<path d="M5.41913 4.80078H4.64453V5.60122H5.41913V4.80078Z" fill="#FFCF00"/>
<path d="M6.19452 4.80078H5.41992V5.60122H6.19452V4.80078Z" fill="#FFCF00"/>
<path d="M6.96796 4.80078H6.19336V5.60122H6.96796V4.80078Z" fill="#FFCF00"/>
<path d="M7.7414 4.80078H6.9668V5.60122H7.7414V4.80078Z" fill="#FFCF00"/>
<path d="M8.51679 4.80078H7.74219V5.60122H8.51679V4.80078Z" fill="#FFCF00"/>
<path d="M9.29023 4.80078H8.51562V5.60122H9.29023V4.80078Z" fill="#FFCF00"/>
<path d="M10.0656 4.80078H9.29102V5.60122H10.0656V4.80078Z" fill="#FFCF00"/>
<path d="M10.8391 4.80078H10.0645V5.60122H10.8391V4.80078Z" fill="#FFCF00"/>
<path d="M11.6144 4.80078H10.8398V5.60122H11.6144V4.80078Z" fill="#FFCF00"/>
<path d="M12.3879 4.80078H11.6133V5.60122H12.3879V4.80078Z" fill="#FFCF00"/>
<path d="M13.1613 4.80078H12.3867V5.60122H13.1613V4.80078Z" fill="#FFCF00"/>
<path d="M13.9348 4.80078H13.1602V5.60122H13.9348V4.80078Z" fill="#FFCF00"/>
<path d="M14.7101 4.80078H13.9355V5.60122H14.7101V4.80078Z" fill="#FFCF00"/>
<path d="M15.4836 4.80078H14.709V5.60122H15.4836V4.80078Z" fill="#FFCF00"/>
<path d="M16.259 4.80078H15.4844V5.60122H16.259V4.80078Z" fill="#FFCF00"/>
<path d="M17.0324 4.80078H16.2578V5.60122H17.0324V4.80078Z" fill="#FFCF00"/>
<path d="M17.8078 4.80078H17.0332V5.60122H17.8078V4.80078Z" fill="#FFCF00"/>
<path d="M18.5812 4.80078H17.8066V5.60122H18.5812V4.80078Z" fill="#FFCF00"/>
<path d="M19.3547 4.80078H18.5801V5.60122H19.3547V4.80078Z" fill="#FFCF00"/>
<path d="M20.1301 4.80078H19.3555V5.60122H20.1301V4.80078Z" fill="#FFCF00"/>
<path d="M20.9035 4.80078H20.1289V5.60122H20.9035V4.80078Z" fill="#FFCF00"/>
<path d="M21.6789 4.80078H20.9043V5.60122H21.6789V4.80078Z" fill="#FFCF00"/>
<path d="M22.4523 4.80078H21.6777V5.60122H22.4523V4.80078Z" fill="#FFCF00"/>
<path d="M23.2258 4.80078H22.4512V5.60122H23.2258V4.80078Z" fill="#EDA507"/>
<path d="M23.9992 4.80078H23.2246V5.60122H23.9992V4.80078Z" fill="black"/>
<path d="M3.8703 5.59961H3.0957V6.40004H3.8703V5.59961Z" fill="black"/>
<path d="M4.64569 5.59961H3.87109V6.40004H4.64569V5.59961Z" fill="#EDA507"/>
<path d="M5.41913 5.59961H4.64453V6.40004H5.41913V5.59961Z" fill="#EDA507"/>
<path d="M6.19452 5.59961H5.41992V6.40004H6.19452V5.59961Z" fill="#EDA507"/>
<path d="M6.96796 5.59961H6.19336V6.40004H6.96796V5.59961Z" fill="#EDA507"/>
<path d="M7.7414 5.59961H6.9668V6.40004H7.7414V5.59961Z" fill="#EDA507"/>
<path d="M8.51679 5.59961H7.74219V6.40004H8.51679V5.59961Z" fill="#EDA507"/>
<path d="M9.29023 5.59961H8.51562V6.40004H9.29023V5.59961Z" fill="#EDA507"/>
<path d="M10.0656 5.59961H9.29102V6.40004H10.0656V5.59961Z" fill="#EDA507"/>
<path d="M10.8391 5.59961H10.0645V6.40004H10.8391V5.59961Z" fill="#EDA507"/>
<path d="M11.6144 5.59961H10.8398V6.40004H11.6144V5.59961Z" fill="#EDA507"/>
<path d="M12.3879 5.59961H11.6133V6.40004H12.3879V5.59961Z" fill="#EDA507"/>
<path d="M13.1613 5.59961H12.3867V6.40004H13.1613V5.59961Z" fill="#EDA507"/>
<path d="M13.9348 5.59961H13.1602V6.40004H13.9348V5.59961Z" fill="#EDA507"/>
<path d="M14.7101 5.59961H13.9355V6.40004H14.7101V5.59961Z" fill="#EDA507"/>
<path d="M15.4836 5.59961H14.709V6.40004H15.4836V5.59961Z" fill="#EDA507"/>
<path d="M16.259 5.59961H15.4844V6.40004H16.259V5.59961Z" fill="#EDA507"/>
<path d="M17.0324 5.59961H16.2578V6.40004H17.0324V5.59961Z" fill="#EDA507"/>
<path d="M17.8078 5.59961H17.0332V6.40004H17.8078V5.59961Z" fill="#EDA507"/>
<path d="M18.5812 5.59961H17.8066V6.40004H18.5812V5.59961Z" fill="#EDA507"/>
<path d="M19.3547 5.59961H18.5801V6.40004H19.3547V5.59961Z" fill="#EDA507"/>
<path d="M20.1301 5.59961H19.3555V6.40004H20.1301V5.59961Z" fill="#FFCF00"/>
<path d="M20.9035 5.59961H20.1289V6.40004H20.9035V5.59961Z" fill="#FFCF00"/>
<path d="M21.6789 5.59961H20.9043V6.40004H21.6789V5.59961Z" fill="#FFCF00"/>
<path d="M22.4523 5.59961H21.6777V6.40004H22.4523V5.59961Z" fill="#FFCF00"/>
<path d="M23.2258 5.59961H22.4512V6.40004H23.2258V5.59961Z" fill="#EDA507"/>
<path d="M23.9992 5.59961H23.2246V6.40004H23.9992V5.59961Z" fill="black"/>
<path d="M1.54999 6.40039H0.775391V7.20083H1.54999V6.40039Z" fill="black"/>
<path d="M2.32343 6.40039H1.54883V7.20083H2.32343V6.40039Z" fill="black"/>
<path d="M3.09687 6.40039H2.32227V7.20083H3.09687V6.40039Z" fill="black"/>
<path d="M3.8703 6.40039H3.0957V7.20083H3.8703V6.40039Z" fill="black"/>
<path d="M4.64569 6.40039H3.87109V7.20083H4.64569V6.40039Z" fill="black"/>
<path d="M5.41913 6.40039H4.64453V7.20083H5.41913V6.40039Z" fill="black"/>
<path d="M6.19452 6.40039H5.41992V7.20083H6.19452V6.40039Z" fill="black"/>
<path d="M6.96796 6.40039H6.19336V7.20083H6.96796V6.40039Z" fill="black"/>
<path d="M7.7414 6.40039H6.9668V7.20083H7.7414V6.40039Z" fill="black"/>
<path d="M8.51679 6.40039H7.74219V7.20083H8.51679V6.40039Z" fill="black"/>
<path d="M9.29023 6.40039H8.51562V7.20083H9.29023V6.40039Z" fill="black"/>
<path d="M10.0656 6.40039H9.29102V7.20083H10.0656V6.40039Z" fill="black"/>
<path d="M10.8391 6.40039H10.0645V7.20083H10.8391V6.40039Z" fill="black"/>
<path d="M11.6144 6.40039H10.8398V7.20083H11.6144V6.40039Z" fill="black"/>
<path d="M12.3879 6.40039H11.6133V7.20083H12.3879V6.40039Z" fill="black"/>
<path d="M13.1613 6.40039H12.3867V7.20083H13.1613V6.40039Z" fill="black"/>
<path d="M13.9348 6.40039H13.1602V7.20083H13.9348V6.40039Z" fill="black"/>
<path d="M14.7101 6.40039H13.9355V7.20083H14.7101V6.40039Z" fill="black"/>
<path d="M15.4836 6.40039H14.709V7.20083H15.4836V6.40039Z" fill="black"/>
<path d="M16.259 6.40039H15.4844V7.20083H16.259V6.40039Z" fill="black"/>
<path d="M17.0324 6.40039H16.2578V7.20083H17.0324V6.40039Z" fill="black"/>
<path d="M17.8078 6.40039H17.0332V7.20083H17.8078V6.40039Z" fill="black"/>
<path d="M18.5812 6.40039H17.8066V7.20083H18.5812V6.40039Z" fill="black"/>
<path d="M19.3547 6.40039H18.5801V7.20083H19.3547V6.40039Z" fill="black"/>
<path d="M20.1301 6.40039H19.3555V7.20083H20.1301V6.40039Z" fill="#EDA507"/>
<path d="M20.9035 6.40039H20.1289V7.20083H20.9035V6.40039Z" fill="#FFCF00"/>
<path d="M21.6789 6.40039H20.9043V7.20083H21.6789V6.40039Z" fill="#FFCF00"/>
<path d="M22.4523 6.40039H21.6777V7.20083H22.4523V6.40039Z" fill="#FFCF00"/>
<path d="M23.2258 6.40039H22.4512V7.20083H23.2258V6.40039Z" fill="#EDA507"/>
<path d="M23.9992 6.40039H23.2246V7.20083H23.9992V6.40039Z" fill="black"/>
<path d="M0.774601 7.20117H0V8.00161H0.774601V7.20117Z" fill="black"/>
<path d="M1.54999 7.20117H0.775391V8.00161H1.54999V7.20117Z" fill="#F2F2F2"/>
<path d="M2.32343 7.20117H1.54883V8.00161H2.32343V7.20117Z" fill="#F2F2F2"/>
<path d="M3.09687 7.20117H2.32227V8.00161H3.09687V7.20117Z" fill="#F2F2F2"/>
<path d="M3.8703 7.20117H3.0957V8.00161H3.8703V7.20117Z" fill="#F2F2F2"/>
<path d="M4.64569 7.20117H3.87109V8.00161H4.64569V7.20117Z" fill="#F2F2F2"/>
<path d="M5.41913 7.20117H4.64453V8.00161H5.41913V7.20117Z" fill="#F2F2F2"/>
<path d="M6.19452 7.20117H5.41992V8.00161H6.19452V7.20117Z" fill="#F2F2F2"/>
<path d="M6.96796 7.20117H6.19336V8.00161H6.96796V7.20117Z" fill="#F2F2F2"/>
<path d="M7.7414 7.20117H6.9668V8.00161H7.7414V7.20117Z" fill="#F2F2F2"/>
<path d="M8.51679 7.20117H7.74219V8.00161H8.51679V7.20117Z" fill="#F2F2F2"/>
<path d="M9.29023 7.20117H8.51562V8.00161H9.29023V7.20117Z" fill="#F2F2F2"/>
<path d="M10.0656 7.20117H9.29102V8.00161H10.0656V7.20117Z" fill="#F2F2F2"/>
<path d="M10.8391 7.20117H10.0645V8.00161H10.8391V7.20117Z" fill="#F2F2F2"/>
<path d="M11.6144 7.20117H10.8398V8.00161H11.6144V7.20117Z" fill="#F2F2F2"/>
<path d="M12.3879 7.20117H11.6133V8.00161H12.3879V7.20117Z" fill="#F2F2F2"/>
<path d="M13.1613 7.20117H12.3867V8.00161H13.1613V7.20117Z" fill="#F2F2F2"/>
<path d="M13.9348 7.20117H13.1602V8.00161H13.9348V7.20117Z" fill="#F2F2F2"/>
<path d="M14.7101 7.20117H13.9355V8.00161H14.7101V7.20117Z" fill="#F2F2F2"/>
<path d="M15.4836 7.20117H14.709V8.00161H15.4836V7.20117Z" fill="#F2F2F2"/>
<path d="M16.259 7.20117H15.4844V8.00161H16.259V7.20117Z" fill="#F2F2F2"/>
<path d="M17.0324 7.20117H16.2578V8.00161H17.0324V7.20117Z" fill="#F2F2F2"/>
<path d="M17.8078 7.20117H17.0332V8.00161H17.8078V7.20117Z" fill="#F2F2F2"/>
<path d="M18.5812 7.20117H17.8066V8.00161H18.5812V7.20117Z" fill="#F2F2F2"/>
<path d="M19.3547 7.20117H18.5801V8.00161H19.3547V7.20117Z" fill="#F2F2F2"/>
<path d="M20.1301 7.20117H19.3555V8.00161H20.1301V7.20117Z" fill="black"/>
<path d="M20.9035 7.20117H20.1289V8.00161H20.9035V7.20117Z" fill="#EDA507"/>
<path d="M21.6789 7.20117H20.9043V8.00161H21.6789V7.20117Z" fill="#FFCF00"/>
<path d="M22.4523 7.20117H21.6777V8.00161H22.4523V7.20117Z" fill="#FFCF00"/>
<path d="M23.2258 7.20117H22.4512V8.00161H23.2258V7.20117Z" fill="#EDA507"/>
<path d="M23.9992 7.20117H23.2246V8.00161H23.9992V7.20117Z" fill="black"/>
<path d="M0.774601 8H0V8.80044H0.774601V8Z" fill="black"/>
<path d="M1.54999 8H0.775391V8.80044H1.54999V8Z" fill="#F2F2F2"/>
<path d="M2.32343 8H1.54883V8.80044H2.32343V8Z" fill="#FFCF00"/>
<path d="M3.09687 8H2.32227V8.80044H3.09687V8Z" fill="#FFCF00"/>
<path d="M3.8703 8H3.0957V8.80044H3.8703V8Z" fill="#FFCF00"/>
<path d="M4.64569 8H3.87109V8.80044H4.64569V8Z" fill="#FFCF00"/>
<path d="M5.41913 8H4.64453V8.80044H5.41913V8Z" fill="#FFCF00"/>
<path d="M6.19452 8H5.41992V8.80044H6.19452V8Z" fill="#FFCF00"/>
<path d="M6.96796 8H6.19336V8.80044H6.96796V8Z" fill="#FFCF00"/>
<path d="M7.7414 8H6.9668V8.80044H7.7414V8Z" fill="#FFCF00"/>
<path d="M8.51679 8H7.74219V8.80044H8.51679V8Z" fill="#FFCF00"/>
<path d="M9.29023 8H8.51562V8.80044H9.29023V8Z" fill="#FFCF00"/>
<path d="M10.0656 8H9.29102V8.80044H10.0656V8Z" fill="#FFCF00"/>
<path d="M10.8391 8H10.0645V8.80044H10.8391V8Z" fill="#FFCF00"/>
<path d="M11.6144 8H10.8398V8.80044H11.6144V8Z" fill="#FFCF00"/>
<path d="M12.3879 8H11.6133V8.80044H12.3879V8Z" fill="#FFCF00"/>
<path d="M13.1613 8H12.3867V8.80044H13.1613V8Z" fill="#FFCF00"/>
<path d="M13.9348 8H13.1602V8.80044H13.9348V8Z" fill="#FFCF00"/>
<path d="M14.7101 8H13.9355V8.80044H14.7101V8Z" fill="#FFCF00"/>
<path d="M15.4836 8H14.709V8.80044H15.4836V8Z" fill="#FFCF00"/>
<path d="M16.259 8H15.4844V8.80044H16.259V8Z" fill="#FFCF00"/>
<path d="M17.0324 8H16.2578V8.80044H17.0324V8Z" fill="#FFCF00"/>
<path d="M17.8078 8H17.0332V8.80044H17.8078V8Z" fill="#FFCF00"/>
<path d="M18.5812 8H17.8066V8.80044H18.5812V8Z" fill="#FFCF00"/>
<path d="M19.3547 8H18.5801V8.80044H19.3547V8Z" fill="#FFCF00"/>
<path d="M20.1301 8H19.3555V8.80044H20.1301V8Z" fill="black"/>
<path d="M20.9035 8H20.1289V8.80044H20.9035V8Z" fill="#EDA507"/>
<path d="M21.6789 8H20.9043V8.80044H21.6789V8Z" fill="#FFCF00"/>
<path d="M22.4523 8H21.6777V8.80044H22.4523V8Z" fill="#FFCF00"/>
<path d="M23.2258 8H22.4512V8.80044H23.2258V8Z" fill="#EDA507"/>
<path d="M23.9992 8H23.2246V8.80044H23.9992V8Z" fill="black"/>
<path d="M0.774601 8.80078H0V9.60122H0.774601V8.80078Z" fill="black"/>
<path d="M1.54999 8.80078H0.775391V9.60122H1.54999V8.80078Z" fill="#F2F2F2"/>
<path d="M2.32343 8.80078H1.54883V9.60122H2.32343V8.80078Z" fill="#FFCF00"/>
<path d="M3.09687 8.80078H2.32227V9.60122H3.09687V8.80078Z" fill="#FFCF00"/>
<path d="M3.8703 8.80078H3.0957V9.60122H3.8703V8.80078Z" fill="#FFCF00"/>
<path d="M4.64569 8.80078H3.87109V9.60122H4.64569V8.80078Z" fill="#FFCF00"/>
<path d="M5.41913 8.80078H4.64453V9.60122H5.41913V8.80078Z" fill="#FFCF00"/>
<path d="M6.19452 8.80078H5.41992V9.60122H6.19452V8.80078Z" fill="#FFCF00"/>
<path d="M6.96796 8.80078H6.19336V9.60122H6.96796V8.80078Z" fill="#FFCF00"/>
<path d="M7.7414 8.80078H6.9668V9.60122H7.7414V8.80078Z" fill="#FFCF00"/>
<path d="M8.51679 8.80078H7.74219V9.60122H8.51679V8.80078Z" fill="#FFCF00"/>
<path d="M9.29023 8.80078H8.51562V9.60122H9.29023V8.80078Z" fill="#FFCF00"/>
<path d="M10.0656 8.80078H9.29102V9.60122H10.0656V8.80078Z" fill="#FFCF00"/>
<path d="M10.8391 8.80078H10.0645V9.60122H10.8391V8.80078Z" fill="#FFCF00"/>
<path d="M11.6144 8.80078H10.8398V9.60122H11.6144V8.80078Z" fill="#FFCF00"/>
<path d="M12.3879 8.80078H11.6133V9.60122H12.3879V8.80078Z" fill="#FFCF00"/>
<path d="M13.1613 8.80078H12.3867V9.60122H13.1613V8.80078Z" fill="#FFCF00"/>
<path d="M13.9348 8.80078H13.1602V9.60122H13.9348V8.80078Z" fill="#FFCF00"/>
<path d="M14.7101 8.80078H13.9355V9.60122H14.7101V8.80078Z" fill="#FFCF00"/>
<path d="M15.4836 8.80078H14.709V9.60122H15.4836V8.80078Z" fill="#FFCF00"/>
<path d="M16.259 8.80078H15.4844V9.60122H16.259V8.80078Z" fill="#FFCF00"/>
<path d="M17.0324 8.80078H16.2578V9.60122H17.0324V8.80078Z" fill="#FFCF00"/>
<path d="M17.8078 8.80078H17.0332V9.60122H17.8078V8.80078Z" fill="#FFCF00"/>
<path d="M18.5812 8.80078H17.8066V9.60122H18.5812V8.80078Z" fill="#FFCF00"/>
<path d="M19.3547 8.80078H18.5801V9.60122H19.3547V8.80078Z" fill="#FFCF00"/>
<path d="M20.1301 8.80078H19.3555V9.60122H20.1301V8.80078Z" fill="black"/>
<path d="M20.9035 8.80078H20.1289V9.60122H20.9035V8.80078Z" fill="#EDA507"/>
<path d="M21.6789 8.80078H20.9043V9.60122H21.6789V8.80078Z" fill="#FFCF00"/>
<path d="M22.4523 8.80078H21.6777V9.60122H22.4523V8.80078Z" fill="#FFCF00"/>
<path d="M23.2258 8.80078H22.4512V9.60122H23.2258V8.80078Z" fill="#EDA507"/>
<path d="M23.9992 8.80078H23.2246V9.60122H23.9992V8.80078Z" fill="black"/>
<path d="M1.54999 9.59961H0.775391V10.4H1.54999V9.59961Z" fill="black"/>
<path d="M2.32343 9.59961H1.54883V10.4H2.32343V9.59961Z" fill="#F2F2F2"/>
<path d="M3.09687 9.59961H2.32227V10.4H3.09687V9.59961Z" fill="#FFCF00"/>
<path d="M3.8703 9.59961H3.0957V10.4H3.8703V9.59961Z" fill="#FFCF00"/>
<path d="M4.64569 9.59961H3.87109V10.4H4.64569V9.59961Z" fill="#FFCF00"/>
<path d="M5.41913 9.59961H4.64453V10.4H5.41913V9.59961Z" fill="#FFCF00"/>
<path d="M6.19452 9.59961H5.41992V10.4H6.19452V9.59961Z" fill="#FFCF00"/>
<path d="M6.96796 9.59961H6.19336V10.4H6.96796V9.59961Z" fill="#FFCF00"/>
<path d="M7.7414 9.59961H6.9668V10.4H7.7414V9.59961Z" fill="#FFCF00"/>
<path d="M8.51679 9.59961H7.74219V10.4H8.51679V9.59961Z" fill="#FFCF00"/>
<path d="M9.29023 9.59961H8.51562V10.4H9.29023V9.59961Z" fill="#FFCF00"/>
<path d="M10.0656 9.59961H9.29102V10.4H10.0656V9.59961Z" fill="#FFCF00"/>
<path d="M10.8391 9.59961H10.0645V10.4H10.8391V9.59961Z" fill="#FFCF00"/>
<path d="M11.6144 9.59961H10.8398V10.4H11.6144V9.59961Z" fill="#FFCF00"/>
<path d="M12.3879 9.59961H11.6133V10.4H12.3879V9.59961Z" fill="#FFCF00"/>
<path d="M13.1613 9.59961H12.3867V10.4H13.1613V9.59961Z" fill="#FFCF00"/>
<path d="M13.9348 9.59961H13.1602V10.4H13.9348V9.59961Z" fill="#FFCF00"/>
<path d="M14.7101 9.59961H13.9355V10.4H14.7101V9.59961Z" fill="#FFCF00"/>
<path d="M15.4836 9.59961H14.709V10.4H15.4836V9.59961Z" fill="#FFCF00"/>
<path d="M16.259 9.59961H15.4844V10.4H16.259V9.59961Z" fill="#FFCF00"/>
<path d="M17.0324 9.59961H16.2578V10.4H17.0324V9.59961Z" fill="#FFCF00"/>
<path d="M17.8078 9.59961H17.0332V10.4H17.8078V9.59961Z" fill="#FFCF00"/>
<path d="M18.5812 9.59961H17.8066V10.4H18.5812V9.59961Z" fill="#FFCF00"/>
<path d="M19.3547 9.59961H18.5801V10.4H19.3547V9.59961Z" fill="#FFCF00"/>
<path d="M20.1301 9.59961H19.3555V10.4H20.1301V9.59961Z" fill="#FFCF00"/>
<path d="M20.9035 9.59961H20.1289V10.4H20.9035V9.59961Z" fill="black"/>
<path d="M21.6789 9.59961H20.9043V10.4H21.6789V9.59961Z" fill="#EDA507"/>
<path d="M22.4523 9.59961H21.6777V10.4H22.4523V9.59961Z" fill="#FFCF00"/>
<path d="M23.2258 9.59961H22.4512V10.4H23.2258V9.59961Z" fill="#EDA507"/>
<path d="M23.9992 9.59961H23.2246V10.4H23.9992V9.59961Z" fill="black"/>
<path d="M1.54999 10.4004H0.775391V11.2008H1.54999V10.4004Z" fill="black"/>
<path d="M2.32343 10.4004H1.54883V11.2008H2.32343V10.4004Z" fill="#F2F2F2"/>
<path d="M3.09687 10.4004H2.32227V11.2008H3.09687V10.4004Z" fill="#FFCF00"/>
<path d="M3.8703 10.4004H3.0957V11.2008H3.8703V10.4004Z" fill="#FFCF00"/>
<path d="M4.64569 10.4004H3.87109V11.2008H4.64569V10.4004Z" fill="#FFCF00"/>
<path d="M5.41913 10.4004H4.64453V11.2008H5.41913V10.4004Z" fill="#FFCF00"/>
<path d="M6.19452 10.4004H5.41992V11.2008H6.19452V10.4004Z" fill="#FFCF00"/>
<path d="M6.96796 10.4004H6.19336V11.2008H6.96796V10.4004Z" fill="#FFCF00"/>
<path d="M7.7414 10.4004H6.9668V11.2008H7.7414V10.4004Z" fill="#FFCF00"/>
<path d="M8.51679 10.4004H7.74219V11.2008H8.51679V10.4004Z" fill="#FFCF00"/>
<path d="M9.29023 10.4004H8.51562V11.2008H9.29023V10.4004Z" fill="#FFCF00"/>
<path d="M10.0656 10.4004H9.29102V11.2008H10.0656V10.4004Z" fill="#FFCF00"/>
<path d="M10.8391 10.4004H10.0645V11.2008H10.8391V10.4004Z" fill="#FFCF00"/>
<path d="M11.6144 10.4004H10.8398V11.2008H11.6144V10.4004Z" fill="#FFCF00"/>
<path d="M12.3879 10.4004H11.6133V11.2008H12.3879V10.4004Z" fill="#FFCF00"/>
<path d="M13.1613 10.4004H12.3867V11.2008H13.1613V10.4004Z" fill="#FFCF00"/>
<path d="M13.9348 10.4004H13.1602V11.2008H13.9348V10.4004Z" fill="#FFCF00"/>
<path d="M14.7101 10.4004H13.9355V11.2008H14.7101V10.4004Z" fill="#FFCF00"/>
<path d="M15.4836 10.4004H14.709V11.2008H15.4836V10.4004Z" fill="#FFCF00"/>
<path d="M16.259 10.4004H15.4844V11.2008H16.259V10.4004Z" fill="#FFCF00"/>
<path d="M17.0324 10.4004H16.2578V11.2008H17.0324V10.4004Z" fill="#FFCF00"/>
<path d="M17.8078 10.4004H17.0332V11.2008H17.8078V10.4004Z" fill="#FFCF00"/>
<path d="M18.5812 10.4004H17.8066V11.2008H18.5812V10.4004Z" fill="#FFCF00"/>
<path d="M19.3547 10.4004H18.5801V11.2008H19.3547V10.4004Z" fill="#FFCF00"/>
<path d="M20.1301 10.4004H19.3555V11.2008H20.1301V10.4004Z" fill="#FFCF00"/>
<path d="M20.9035 10.4004H20.1289V11.2008H20.9035V10.4004Z" fill="black"/>
<path d="M21.6789 10.4004H20.9043V11.2008H21.6789V10.4004Z" fill="#EDA507"/>
<path d="M22.4523 10.4004H21.6777V11.2008H22.4523V10.4004Z" fill="#FFCF00"/>
<path d="M23.2258 10.4004H22.4512V11.2008H23.2258V10.4004Z" fill="#EDA507"/>
<path d="M23.9992 10.4004H23.2246V11.2008H23.9992V10.4004Z" fill="black"/>
<path d="M1.54999 11.2012H0.775391V12.0016H1.54999V11.2012Z" fill="black"/>
<path d="M2.32343 11.2012H1.54883V12.0016H2.32343V11.2012Z" fill="#F2F2F2"/>
<path d="M3.09687 11.2012H2.32227V12.0016H3.09687V11.2012Z" fill="#FFCF00"/>
<path d="M3.8703 11.2012H3.0957V12.0016H3.8703V11.2012Z" fill="#FFCF00"/>
<path d="M4.64569 11.2012H3.87109V12.0016H4.64569V11.2012Z" fill="#FFCF00"/>
<path d="M5.41913 11.2012H4.64453V12.0016H5.41913V11.2012Z" fill="#FFCF00"/>
<path d="M6.19452 11.2012H5.41992V12.0016H6.19452V11.2012Z" fill="#FFCF00"/>
<path d="M6.96796 11.2012H6.19336V12.0016H6.96796V11.2012Z" fill="#FFCF00"/>
<path d="M7.7414 11.2012H6.9668V12.0016H7.7414V11.2012Z" fill="#FFCF00"/>
<path d="M8.51679 11.2012H7.74219V12.0016H8.51679V11.2012Z" fill="#FFCF00"/>
<path d="M9.29023 11.2012H8.51562V12.0016H9.29023V11.2012Z" fill="#FFCF00"/>
<path d="M10.0656 11.2012H9.29102V12.0016H10.0656V11.2012Z" fill="#FFCF00"/>
<path d="M10.8391 11.2012H10.0645V12.0016H10.8391V11.2012Z" fill="#FFCF00"/>
<path d="M11.6144 11.2012H10.8398V12.0016H11.6144V11.2012Z" fill="#FFCF00"/>
<path d="M12.3879 11.2012H11.6133V12.0016H12.3879V11.2012Z" fill="#FFCF00"/>
<path d="M13.1613 11.2012H12.3867V12.0016H13.1613V11.2012Z" fill="#FFCF00"/>
<path d="M13.9348 11.2012H13.1602V12.0016H13.9348V11.2012Z" fill="#FFCF00"/>
<path d="M14.7101 11.2012H13.9355V12.0016H14.7101V11.2012Z" fill="#FFCF00"/>
<path d="M15.4836 11.2012H14.709V12.0016H15.4836V11.2012Z" fill="#FFCF00"/>
<path d="M16.259 11.2012H15.4844V12.0016H16.259V11.2012Z" fill="#FFCF00"/>
<path d="M17.0324 11.2012H16.2578V12.0016H17.0324V11.2012Z" fill="#FFCF00"/>
<path d="M17.8078 11.2012H17.0332V12.0016H17.8078V11.2012Z" fill="#FFCF00"/>
<path d="M18.5812 11.2012H17.8066V12.0016H18.5812V11.2012Z" fill="#FFCF00"/>
<path d="M19.3547 11.2012H18.5801V12.0016H19.3547V11.2012Z" fill="#FFCF00"/>
<path d="M20.1301 11.2012H19.3555V12.0016H20.1301V11.2012Z" fill="#FFCF00"/>
<path d="M20.9035 11.2012H20.1289V12.0016H20.9035V11.2012Z" fill="black"/>
<path d="M21.6789 11.2012H20.9043V12.0016H21.6789V11.2012Z" fill="#EDA507"/>
<path d="M22.4523 11.2012H21.6777V12.0016H22.4523V11.2012Z" fill="#FFCF00"/>
<path d="M23.2258 11.2012H22.4512V12.0016H23.2258V11.2012Z" fill="#EDA507"/>
<path d="M23.9992 11.2012H23.2246V12.0016H23.9992V11.2012Z" fill="black"/>
<path d="M2.32343 12H1.54883V12.8004H2.32343V12Z" fill="black"/>
<path d="M3.09687 12H2.32227V12.8004H3.09687V12Z" fill="#F2F2F2"/>
<path d="M3.8703 12H3.0957V12.8004H3.8703V12Z" fill="#FFCF00"/>
<path d="M4.64569 12H3.87109V12.8004H4.64569V12Z" fill="#FFCF00"/>
<path d="M5.41913 12H4.64453V12.8004H5.41913V12Z" fill="#FFCF00"/>
<path d="M6.19452 12H5.41992V12.8004H6.19452V12Z" fill="#FFCF00"/>
<path d="M6.96796 12H6.19336V12.8004H6.96796V12Z" fill="#FFCF00"/>
<path d="M7.7414 12H6.9668V12.8004H7.7414V12Z" fill="#FFCF00"/>
<path d="M8.51679 12H7.74219V12.8004H8.51679V12Z" fill="#FFCF00"/>
<path d="M9.29023 12H8.51562V12.8004H9.29023V12Z" fill="#FFCF00"/>
<path d="M10.0656 12H9.29102V12.8004H10.0656V12Z" fill="#FFCF00"/>
<path d="M10.8391 12H10.0645V12.8004H10.8391V12Z" fill="#FFCF00"/>
<path d="M11.6144 12H10.8398V12.8004H11.6144V12Z" fill="#FFCF00"/>
<path d="M12.3879 12H11.6133V12.8004H12.3879V12Z" fill="#FFCF00"/>
<path d="M13.1613 12H12.3867V12.8004H13.1613V12Z" fill="#FFCF00"/>
<path d="M13.9348 12H13.1602V12.8004H13.9348V12Z" fill="#FFCF00"/>
<path d="M14.7101 12H13.9355V12.8004H14.7101V12Z" fill="#FFCF00"/>
<path d="M15.4836 12H14.709V12.8004H15.4836V12Z" fill="#FFCF00"/>
<path d="M16.259 12H15.4844V12.8004H16.259V12Z" fill="#FFCF00"/>
<path d="M17.0324 12H16.2578V12.8004H17.0324V12Z" fill="#FFCF00"/>
<path d="M17.8078 12H17.0332V12.8004H17.8078V12Z" fill="#FFCF00"/>
<path d="M18.5812 12H17.8066V12.8004H18.5812V12Z" fill="#FFCF00"/>
<path d="M19.3547 12H18.5801V12.8004H19.3547V12Z" fill="#FFCF00"/>
<path d="M20.1301 12H19.3555V12.8004H20.1301V12Z" fill="#FFCF00"/>
<path d="M20.9035 12H20.1289V12.8004H20.9035V12Z" fill="#FFCF00"/>
<path d="M21.6789 12H20.9043V12.8004H21.6789V12Z" fill="black"/>
<path d="M22.4523 12H21.6777V12.8004H22.4523V12Z" fill="#EDA507"/>
<path d="M23.2258 12H22.4512V12.8004H23.2258V12Z" fill="#EDA507"/>
<path d="M23.9992 12H23.2246V12.8004H23.9992V12Z" fill="black"/>
<path d="M2.32343 12.8008H1.54883V13.6012H2.32343V12.8008Z" fill="black"/>
<path d="M3.09687 12.8008H2.32227V13.6012H3.09687V12.8008Z" fill="#F2F2F2"/>
<path d="M3.8703 12.8008H3.0957V13.6012H3.8703V12.8008Z" fill="#FFCF00"/>
<path d="M4.64569 12.8008H3.87109V13.6012H4.64569V12.8008Z" fill="#FFCF00"/>
<path d="M5.41913 12.8008H4.64453V13.6012H5.41913V12.8008Z" fill="#FFCF00"/>
<path d="M6.19452 12.8008H5.41992V13.6012H6.19452V12.8008Z" fill="#FFCF00"/>
<path d="M6.96796 12.8008H6.19336V13.6012H6.96796V12.8008Z" fill="#FFCF00"/>
<path d="M7.7414 12.8008H6.9668V13.6012H7.7414V12.8008Z" fill="#FFCF00"/>
<path d="M8.51679 12.8008H7.74219V13.6012H8.51679V12.8008Z" fill="#FFCF00"/>
<path d="M9.29023 12.8008H8.51562V13.6012H9.29023V12.8008Z" fill="#FFCF00"/>
<path d="M10.0656 12.8008H9.29102V13.6012H10.0656V12.8008Z" fill="#FFCF00"/>
<path d="M10.8391 12.8008H10.0645V13.6012H10.8391V12.8008Z" fill="#FFCF00"/>
<path d="M11.6144 12.8008H10.8398V13.6012H11.6144V12.8008Z" fill="#FFCF00"/>
<path d="M12.3879 12.8008H11.6133V13.6012H12.3879V12.8008Z" fill="#FFCF00"/>
<path d="M13.1613 12.8008H12.3867V13.6012H13.1613V12.8008Z" fill="#FFCF00"/>
<path d="M13.9348 12.8008H13.1602V13.6012H13.9348V12.8008Z" fill="#FFCF00"/>
<path d="M14.7101 12.8008H13.9355V13.6012H14.7101V12.8008Z" fill="#FFCF00"/>
<path d="M15.4836 12.8008H14.709V13.6012H15.4836V12.8008Z" fill="#FFCF00"/>
<path d="M16.259 12.8008H15.4844V13.6012H16.259V12.8008Z" fill="#FFCF00"/>
<path d="M17.0324 12.8008H16.2578V13.6012H17.0324V12.8008Z" fill="#FFCF00"/>
<path d="M17.8078 12.8008H17.0332V13.6012H17.8078V12.8008Z" fill="#FFCF00"/>
<path d="M18.5812 12.8008H17.8066V13.6012H18.5812V12.8008Z" fill="#FFCF00"/>
<path d="M19.3547 12.8008H18.5801V13.6012H19.3547V12.8008Z" fill="#FFCF00"/>
<path d="M20.1301 12.8008H19.3555V13.6012H20.1301V12.8008Z" fill="#FFCF00"/>
<path d="M20.9035 12.8008H20.1289V13.6012H20.9035V12.8008Z" fill="#FFCF00"/>
<path d="M21.6789 12.8008H20.9043V13.6012H21.6789V12.8008Z" fill="black"/>
<path d="M22.4523 12.8008H21.6777V13.6012H22.4523V12.8008Z" fill="#EDA507"/>
<path d="M23.2258 12.8008H22.4512V13.6012H23.2258V12.8008Z" fill="#EDA507"/>
<path d="M23.9992 12.8008H23.2246V13.6012H23.9992V12.8008Z" fill="black"/>
<path d="M2.32343 13.5996H1.54883V14.4H2.32343V13.5996Z" fill="black"/>
<path d="M3.09687 13.5996H2.32227V14.4H3.09687V13.5996Z" fill="#F2F2F2"/>
<path d="M3.8703 13.5996H3.0957V14.4H3.8703V13.5996Z" fill="#FFCF00"/>
<path d="M4.64569 13.5996H3.87109V14.4H4.64569V13.5996Z" fill="#FFCF00"/>
<path d="M5.41913 13.5996H4.64453V14.4H5.41913V13.5996Z" fill="#FFCF00"/>
<path d="M6.19452 13.5996H5.41992V14.4H6.19452V13.5996Z" fill="#FFCF00"/>
<path d="M6.96796 13.5996H6.19336V14.4H6.96796V13.5996Z" fill="#FFCF00"/>
<path d="M7.7414 13.5996H6.9668V14.4H7.7414V13.5996Z" fill="#FFCF00"/>
<path d="M8.51679 13.5996H7.74219V14.4H8.51679V13.5996Z" fill="#FFCF00"/>
<path d="M9.29023 13.5996H8.51562V14.4H9.29023V13.5996Z" fill="#FFCF00"/>
<path d="M10.0656 13.5996H9.29102V14.4H10.0656V13.5996Z" fill="#FFCF00"/>
<path d="M10.8391 13.5996H10.0645V14.4H10.8391V13.5996Z" fill="#FFCF00"/>
<path d="M11.6144 13.5996H10.8398V14.4H11.6144V13.5996Z" fill="#FFCF00"/>
<path d="M12.3879 13.5996H11.6133V14.4H12.3879V13.5996Z" fill="#FFCF00"/>
<path d="M13.1613 13.5996H12.3867V14.4H13.1613V13.5996Z" fill="#FFCF00"/>
<path d="M13.9348 13.5996H13.1602V14.4H13.9348V13.5996Z" fill="#FFCF00"/>
<path d="M14.7101 13.5996H13.9355V14.4H14.7101V13.5996Z" fill="#FFCF00"/>
<path d="M15.4836 13.5996H14.709V14.4H15.4836V13.5996Z" fill="#FFCF00"/>
<path d="M16.259 13.5996H15.4844V14.4H16.259V13.5996Z" fill="#FFCF00"/>
<path d="M17.0324 13.5996H16.2578V14.4H17.0324V13.5996Z" fill="#FFCF00"/>
<path d="M17.8078 13.5996H17.0332V14.4H17.8078V13.5996Z" fill="#FFCF00"/>
<path d="M18.5812 13.5996H17.8066V14.4H18.5812V13.5996Z" fill="#FFCF00"/>
<path d="M19.3547 13.5996H18.5801V14.4H19.3547V13.5996Z" fill="#FFCF00"/>
<path d="M20.1301 13.5996H19.3555V14.4H20.1301V13.5996Z" fill="#FFCF00"/>
<path d="M20.9035 13.5996H20.1289V14.4H20.9035V13.5996Z" fill="#FFCF00"/>
<path d="M21.6789 13.5996H20.9043V14.4H21.6789V13.5996Z" fill="black"/>
<path d="M22.4523 13.5996H21.6777V14.4H22.4523V13.5996Z" fill="#EDA507"/>
<path d="M23.2258 13.5996H22.4512V14.4H23.2258V13.5996Z" fill="#EDA507"/>
<path d="M23.9992 13.5996H23.2246V14.4H23.9992V13.5996Z" fill="black"/>
<path d="M3.09687 14.4004H2.32227V15.2008H3.09687V14.4004Z" fill="black"/>
<path d="M3.8703 14.4004H3.0957V15.2008H3.8703V14.4004Z" fill="#F2F2F2"/>
<path d="M4.64569 14.4004H3.87109V15.2008H4.64569V14.4004Z" fill="#FFCF00"/>
<path d="M5.41913 14.4004H4.64453V15.2008H5.41913V14.4004Z" fill="#FFCF00"/>
<path d="M6.19452 14.4004H5.41992V15.2008H6.19452V14.4004Z" fill="#FFCF00"/>
<path d="M6.96796 14.4004H6.19336V15.2008H6.96796V14.4004Z" fill="#FFCF00"/>
<path d="M7.7414 14.4004H6.9668V15.2008H7.7414V14.4004Z" fill="#FFCF00"/>
<path d="M8.51679 14.4004H7.74219V15.2008H8.51679V14.4004Z" fill="#FFCF00"/>
<path d="M9.29023 14.4004H8.51562V15.2008H9.29023V14.4004Z" fill="#FFCF00"/>
<path d="M10.0656 14.4004H9.29102V15.2008H10.0656V14.4004Z" fill="#FFCF00"/>
<path d="M10.8391 14.4004H10.0645V15.2008H10.8391V14.4004Z" fill="#FFCF00"/>
<path d="M11.6144 14.4004H10.8398V15.2008H11.6144V14.4004Z" fill="#FFCF00"/>
<path d="M12.3879 14.4004H11.6133V15.2008H12.3879V14.4004Z" fill="#FFCF00"/>
<path d="M13.1613 14.4004H12.3867V15.2008H13.1613V14.4004Z" fill="#FFCF00"/>
<path d="M13.9348 14.4004H13.1602V15.2008H13.9348V14.4004Z" fill="#FFCF00"/>
<path d="M14.7101 14.4004H13.9355V15.2008H14.7101V14.4004Z" fill="#FFCF00"/>
<path d="M15.4836 14.4004H14.709V15.2008H15.4836V14.4004Z" fill="#FFCF00"/>
<path d="M16.259 14.4004H15.4844V15.2008H16.259V14.4004Z" fill="#FFCF00"/>
<path d="M17.0324 14.4004H16.2578V15.2008H17.0324V14.4004Z" fill="#FFCF00"/>
<path d="M17.8078 14.4004H17.0332V15.2008H17.8078V14.4004Z" fill="#FFCF00"/>
<path d="M18.5812 14.4004H17.8066V15.2008H18.5812V14.4004Z" fill="#FFCF00"/>
<path d="M19.3547 14.4004H18.5801V15.2008H19.3547V14.4004Z" fill="#FFCF00"/>
<path d="M20.1301 14.4004H19.3555V15.2008H20.1301V14.4004Z" fill="#FFCF00"/>
<path d="M20.9035 14.4004H20.1289V15.2008H20.9035V14.4004Z" fill="#FFCF00"/>
<path d="M21.6789 14.4004H20.9043V15.2008H21.6789V14.4004Z" fill="#FFCF00"/>
<path d="M22.4523 14.4004H21.6777V15.2008H22.4523V14.4004Z" fill="black"/>
<path d="M23.2258 14.4004H22.4512V15.2008H23.2258V14.4004Z" fill="#EDA507"/>
<path d="M23.9992 14.4004H23.2246V15.2008H23.9992V14.4004Z" fill="black"/>
<path d="M3.09687 15.2012H2.32227V16.0016H3.09687V15.2012Z" fill="black"/>
<path d="M3.8703 15.2012H3.0957V16.0016H3.8703V15.2012Z" fill="#F2F2F2"/>
<path d="M4.64569 15.2012H3.87109V16.0016H4.64569V15.2012Z" fill="#FFCF00"/>
<path d="M5.41913 15.2012H4.64453V16.0016H5.41913V15.2012Z" fill="#FFCF00"/>
<path d="M6.19452 15.2012H5.41992V16.0016H6.19452V15.2012Z" fill="#FFCF00"/>
<path d="M6.96796 15.2012H6.19336V16.0016H6.96796V15.2012Z" fill="#FFCF00"/>
<path d="M7.7414 15.2012H6.9668V16.0016H7.7414V15.2012Z" fill="#FFCF00"/>
<path d="M8.51679 15.2012H7.74219V16.0016H8.51679V15.2012Z" fill="#FFCF00"/>
<path d="M9.29023 15.2012H8.51562V16.0016H9.29023V15.2012Z" fill="#FFCF00"/>
<path d="M10.0656 15.2012H9.29102V16.0016H10.0656V15.2012Z" fill="#FFCF00"/>
<path d="M10.8391 15.2012H10.0645V16.0016H10.8391V15.2012Z" fill="#FFCF00"/>
<path d="M11.6144 15.2012H10.8398V16.0016H11.6144V15.2012Z" fill="#FFCF00"/>
<path d="M12.3879 15.2012H11.6133V16.0016H12.3879V15.2012Z" fill="#FFCF00"/>
<path d="M13.1613 15.2012H12.3867V16.0016H13.1613V15.2012Z" fill="#FFCF00"/>
<path d="M13.9348 15.2012H13.1602V16.0016H13.9348V15.2012Z" fill="#FFCF00"/>
<path d="M14.7101 15.2012H13.9355V16.0016H14.7101V15.2012Z" fill="#FFCF00"/>
<path d="M15.4836 15.2012H14.709V16.0016H15.4836V15.2012Z" fill="#FFCF00"/>
<path d="M16.259 15.2012H15.4844V16.0016H16.259V15.2012Z" fill="#FFCF00"/>
<path d="M17.0324 15.2012H16.2578V16.0016H17.0324V15.2012Z" fill="#FFCF00"/>
<path d="M17.8078 15.2012H17.0332V16.0016H17.8078V15.2012Z" fill="#FFCF00"/>
<path d="M18.5812 15.2012H17.8066V16.0016H18.5812V15.2012Z" fill="#FFCF00"/>
<path d="M19.3547 15.2012H18.5801V16.0016H19.3547V15.2012Z" fill="#FFCF00"/>
<path d="M20.1301 15.2012H19.3555V16.0016H20.1301V15.2012Z" fill="#FFCF00"/>
<path d="M20.9035 15.2012H20.1289V16.0016H20.9035V15.2012Z" fill="#FFCF00"/>
<path d="M21.6789 15.2012H20.9043V16.0016H21.6789V15.2012Z" fill="#FFCF00"/>
<path d="M22.4523 15.2012H21.6777V16.0016H22.4523V15.2012Z" fill="black"/>
<path d="M23.2258 15.2012H22.4512V16.0016H23.2258V15.2012Z" fill="#EDA507"/>
<path d="M23.9992 15.2012H23.2246V16.0016H23.9992V15.2012Z" fill="black"/>
<path d="M3.09687 16H2.32227V16.8004H3.09687V16Z" fill="black"/>
<path d="M3.8703 16H3.0957V16.8004H3.8703V16Z" fill="#F2F2F2"/>
<path d="M4.64569 16H3.87109V16.8004H4.64569V16Z" fill="#FFCF00"/>
<path d="M5.41913 16H4.64453V16.8004H5.41913V16Z" fill="#FFCF00"/>
<path d="M6.19452 16H5.41992V16.8004H6.19452V16Z" fill="#FFCF00"/>
<path d="M6.96796 16H6.19336V16.8004H6.96796V16Z" fill="#FFCF00"/>
<path d="M7.7414 16H6.9668V16.8004H7.7414V16Z" fill="#FFCF00"/>
<path d="M8.51679 16H7.74219V16.8004H8.51679V16Z" fill="#FFCF00"/>
<path d="M9.29023 16H8.51562V16.8004H9.29023V16Z" fill="#FFCF00"/>
<path d="M10.0656 16H9.29102V16.8004H10.0656V16Z" fill="#FFCF00"/>
<path d="M10.8391 16H10.0645V16.8004H10.8391V16Z" fill="#FFCF00"/>
<path d="M11.6144 16H10.8398V16.8004H11.6144V16Z" fill="#FFCF00"/>
<path d="M12.3879 16H11.6133V16.8004H12.3879V16Z" fill="#FFCF00"/>
<path d="M13.1613 16H12.3867V16.8004H13.1613V16Z" fill="#FFCF00"/>
<path d="M13.9348 16H13.1602V16.8004H13.9348V16Z" fill="#FFCF00"/>
<path d="M14.7101 16H13.9355V16.8004H14.7101V16Z" fill="#FFCF00"/>
<path d="M15.4836 16H14.709V16.8004H15.4836V16Z" fill="#FFCF00"/>
<path d="M16.259 16H15.4844V16.8004H16.259V16Z" fill="#FFCF00"/>
<path d="M17.0324 16H16.2578V16.8004H17.0324V16Z" fill="#FFCF00"/>
<path d="M17.8078 16H17.0332V16.8004H17.8078V16Z" fill="#FFCF00"/>
<path d="M18.5812 16H17.8066V16.8004H18.5812V16Z" fill="#FFCF00"/>
<path d="M19.3547 16H18.5801V16.8004H19.3547V16Z" fill="#FFCF00"/>
<path d="M20.1301 16H19.3555V16.8004H20.1301V16Z" fill="#FFCF00"/>
<path d="M20.9035 16H20.1289V16.8004H20.9035V16Z" fill="#FFCF00"/>
<path d="M21.6789 16H20.9043V16.8004H21.6789V16Z" fill="#FFCF00"/>
<path d="M22.4523 16H21.6777V16.8004H22.4523V16Z" fill="black"/>
<path d="M23.2258 16H22.4512V16.8004H23.2258V16Z" fill="#EDA507"/>
<path d="M23.9992 16H23.2246V16.8004H23.9992V16Z" fill="black"/>
<path d="M3.8703 16.8008H3.0957V17.6012H3.8703V16.8008Z" fill="black"/>
<path d="M4.64569 16.8008H3.87109V17.6012H4.64569V16.8008Z" fill="#F2F2F2"/>
<path d="M5.41913 16.8008H4.64453V17.6012H5.41913V16.8008Z" fill="#FFCF00"/>
<path d="M6.19452 16.8008H5.41992V17.6012H6.19452V16.8008Z" fill="#FFCF00"/>
<path d="M6.96796 16.8008H6.19336V17.6012H6.96796V16.8008Z" fill="#FFCF00"/>
<path d="M7.7414 16.8008H6.9668V17.6012H7.7414V16.8008Z" fill="#FFCF00"/>
<path d="M8.51679 16.8008H7.74219V17.6012H8.51679V16.8008Z" fill="#FFCF00"/>
<path d="M9.29023 16.8008H8.51562V17.6012H9.29023V16.8008Z" fill="#FFCF00"/>
<path d="M10.0656 16.8008H9.29102V17.6012H10.0656V16.8008Z" fill="#FFCF00"/>
<path d="M10.8391 16.8008H10.0645V17.6012H10.8391V16.8008Z" fill="#FFCF00"/>
<path d="M11.6144 16.8008H10.8398V17.6012H11.6144V16.8008Z" fill="#FFCF00"/>
<path d="M12.3879 16.8008H11.6133V17.6012H12.3879V16.8008Z" fill="#FFCF00"/>
<path d="M13.1613 16.8008H12.3867V17.6012H13.1613V16.8008Z" fill="#FFCF00"/>
<path d="M13.9348 16.8008H13.1602V17.6012H13.9348V16.8008Z" fill="#FFCF00"/>
<path d="M14.7101 16.8008H13.9355V17.6012H14.7101V16.8008Z" fill="#FFCF00"/>
<path d="M15.4836 16.8008H14.709V17.6012H15.4836V16.8008Z" fill="#FFCF00"/>
<path d="M16.259 16.8008H15.4844V17.6012H16.259V16.8008Z" fill="#FFCF00"/>
<path d="M17.0324 16.8008H16.2578V17.6012H17.0324V16.8008Z" fill="#FFCF00"/>
<path d="M17.8078 16.8008H17.0332V17.6012H17.8078V16.8008Z" fill="#FFCF00"/>
<path d="M18.5812 16.8008H17.8066V17.6012H18.5812V16.8008Z" fill="#FFCF00"/>
<path d="M19.3547 16.8008H18.5801V17.6012H19.3547V16.8008Z" fill="#FFCF00"/>
<path d="M20.1301 16.8008H19.3555V17.6012H20.1301V16.8008Z" fill="#FFCF00"/>
<path d="M20.9035 16.8008H20.1289V17.6012H20.9035V16.8008Z" fill="#FFCF00"/>
<path d="M21.6789 16.8008H20.9043V17.6012H21.6789V16.8008Z" fill="#FFCF00"/>
<path d="M22.4523 16.8008H21.6777V17.6012H22.4523V16.8008Z" fill="#FFCF00"/>
<path d="M23.2258 16.8008H22.4512V17.6012H23.2258V16.8008Z" fill="black"/>
<path d="M23.9992 16.8008H23.2246V17.6012H23.9992V16.8008Z" fill="black"/>
<path d="M3.8703 17.6016H3.0957V18.402H3.8703V17.6016Z" fill="black"/>
<path d="M4.64569 17.6016H3.87109V18.402H4.64569V17.6016Z" fill="#F2F2F2"/>
<path d="M5.41913 17.6016H4.64453V18.402H5.41913V17.6016Z" fill="#FFCF00"/>
<path d="M6.19452 17.6016H5.41992V18.402H6.19452V17.6016Z" fill="#FFCF00"/>
<path d="M6.96796 17.6016H6.19336V18.402H6.96796V17.6016Z" fill="#FFCF00"/>
<path d="M7.7414 17.6016H6.9668V18.402H7.7414V17.6016Z" fill="#FFCF00"/>
<path d="M8.51679 17.6016H7.74219V18.402H8.51679V17.6016Z" fill="#FFCF00"/>
<path d="M9.29023 17.6016H8.51562V18.402H9.29023V17.6016Z" fill="#FFCF00"/>
<path d="M10.0656 17.6016H9.29102V18.402H10.0656V17.6016Z" fill="#FFCF00"/>
<path d="M10.8391 17.6016H10.0645V18.402H10.8391V17.6016Z" fill="#FFCF00"/>
<path d="M11.6144 17.6016H10.8398V18.402H11.6144V17.6016Z" fill="#FFCF00"/>
<path d="M12.3879 17.6016H11.6133V18.402H12.3879V17.6016Z" fill="#FFCF00"/>
<path d="M13.1613 17.6016H12.3867V18.402H13.1613V17.6016Z" fill="#FFCF00"/>
<path d="M13.9348 17.6016H13.1602V18.402H13.9348V17.6016Z" fill="#FFCF00"/>
<path d="M14.7101 17.6016H13.9355V18.402H14.7101V17.6016Z" fill="#FFCF00"/>
<path d="M15.4836 17.6016H14.709V18.402H15.4836V17.6016Z" fill="#FFCF00"/>
<path d="M16.259 17.6016H15.4844V18.402H16.259V17.6016Z" fill="#FFCF00"/>
<path d="M17.0324 17.6016H16.2578V18.402H17.0324V17.6016Z" fill="#FFCF00"/>
<path d="M17.8078 17.6016H17.0332V18.402H17.8078V17.6016Z" fill="#FFCF00"/>
<path d="M18.5812 17.6016H17.8066V18.402H18.5812V17.6016Z" fill="#FFCF00"/>
<path d="M19.3547 17.6016H18.5801V18.402H19.3547V17.6016Z" fill="#FFCF00"/>
<path d="M20.1301 17.6016H19.3555V18.402H20.1301V17.6016Z" fill="#FFCF00"/>
<path d="M20.9035 17.6016H20.1289V18.402H20.9035V17.6016Z" fill="#FFCF00"/>
<path d="M21.6789 17.6016H20.9043V18.402H21.6789V17.6016Z" fill="#FFCF00"/>
<path d="M22.4523 17.6016H21.6777V18.402H22.4523V17.6016Z" fill="#FFCF00"/>
<path d="M23.2258 17.6016H22.4512V18.402H23.2258V17.6016Z" fill="black"/>
<path d="M23.9992 17.6016H23.2246V18.402H23.9992V17.6016Z" fill="black"/>
<path d="M3.8703 18.4004H3.0957V19.2008H3.8703V18.4004Z" fill="black"/>
<path d="M4.64569 18.4004H3.87109V19.2008H4.64569V18.4004Z" fill="#EDA507"/>
<path d="M5.41913 18.4004H4.64453V19.2008H5.41913V18.4004Z" fill="#EDA507"/>
<path d="M6.19452 18.4004H5.41992V19.2008H6.19452V18.4004Z" fill="#EDA507"/>
<path d="M6.96796 18.4004H6.19336V19.2008H6.96796V18.4004Z" fill="#EDA507"/>
<path d="M7.7414 18.4004H6.9668V19.2008H7.7414V18.4004Z" fill="#EDA507"/>
<path d="M8.51679 18.4004H7.74219V19.2008H8.51679V18.4004Z" fill="#EDA507"/>
<path d="M9.29023 18.4004H8.51562V19.2008H9.29023V18.4004Z" fill="#EDA507"/>
<path d="M10.0656 18.4004H9.29102V19.2008H10.0656V18.4004Z" fill="#EDA507"/>
<path d="M10.8391 18.4004H10.0645V19.2008H10.8391V18.4004Z" fill="#EDA507"/>
<path d="M11.6144 18.4004H10.8398V19.2008H11.6144V18.4004Z" fill="#EDA507"/>
<path d="M12.3879 18.4004H11.6133V19.2008H12.3879V18.4004Z" fill="#EDA507"/>
<path d="M13.1613 18.4004H12.3867V19.2008H13.1613V18.4004Z" fill="#EDA507"/>
<path d="M13.9348 18.4004H13.1602V19.2008H13.9348V18.4004Z" fill="#EDA507"/>
<path d="M14.7101 18.4004H13.9355V19.2008H14.7101V18.4004Z" fill="#EDA507"/>
<path d="M15.4836 18.4004H14.709V19.2008H15.4836V18.4004Z" fill="#EDA507"/>
<path d="M16.259 18.4004H15.4844V19.2008H16.259V18.4004Z" fill="#EDA507"/>
<path d="M17.0324 18.4004H16.2578V19.2008H17.0324V18.4004Z" fill="#EDA507"/>
<path d="M17.8078 18.4004H17.0332V19.2008H17.8078V18.4004Z" fill="#EDA507"/>
<path d="M18.5812 18.4004H17.8066V19.2008H18.5812V18.4004Z" fill="#EDA507"/>
<path d="M19.3547 18.4004H18.5801V19.2008H19.3547V18.4004Z" fill="#EDA507"/>
<path d="M20.1301 18.4004H19.3555V19.2008H20.1301V18.4004Z" fill="#EDA507"/>
<path d="M20.9035 18.4004H20.1289V19.2008H20.9035V18.4004Z" fill="#EDA507"/>
<path d="M21.6789 18.4004H20.9043V19.2008H21.6789V18.4004Z" fill="#EDA507"/>
<path d="M22.4523 18.4004H21.6777V19.2008H22.4523V18.4004Z" fill="#EDA507"/>
<path d="M23.2258 18.4004H22.4512V19.2008H23.2258V18.4004Z" fill="black"/>
<path d="M23.9992 18.4004H23.2246V19.2008H23.9992V18.4004Z" fill="black"/>
<path d="M4.64569 19.2012H3.87109V20.0016H4.64569V19.2012Z" fill="black"/>
<path d="M5.41913 19.2012H4.64453V20.0016H5.41913V19.2012Z" fill="black"/>
<path d="M6.19452 19.2012H5.41992V20.0016H6.19452V19.2012Z" fill="black"/>
<path d="M6.96796 19.2012H6.19336V20.0016H6.96796V19.2012Z" fill="black"/>
<path d="M7.7414 19.2012H6.9668V20.0016H7.7414V19.2012Z" fill="black"/>
<path d="M8.51679 19.2012H7.74219V20.0016H8.51679V19.2012Z" fill="black"/>
<path d="M9.29023 19.2012H8.51562V20.0016H9.29023V19.2012Z" fill="black"/>
<path d="M10.0656 19.2012H9.29102V20.0016H10.0656V19.2012Z" fill="black"/>
<path d="M10.8391 19.2012H10.0645V20.0016H10.8391V19.2012Z" fill="black"/>
<path d="M11.6144 19.2012H10.8398V20.0016H11.6144V19.2012Z" fill="black"/>
<path d="M12.3879 19.2012H11.6133V20.0016H12.3879V19.2012Z" fill="black"/>
<path d="M13.1613 19.2012H12.3867V20.0016H13.1613V19.2012Z" fill="black"/>
<path d="M13.9348 19.2012H13.1602V20.0016H13.9348V19.2012Z" fill="black"/>
<path d="M14.7101 19.2012H13.9355V20.0016H14.7101V19.2012Z" fill="black"/>
<path d="M15.4836 19.2012H14.709V20.0016H15.4836V19.2012Z" fill="black"/>
<path d="M16.259 19.2012H15.4844V20.0016H16.259V19.2012Z" fill="black"/>
<path d="M17.0324 19.2012H16.2578V20.0016H17.0324V19.2012Z" fill="black"/>
<path d="M17.8078 19.2012H17.0332V20.0016H17.8078V19.2012Z" fill="black"/>
<path d="M18.5812 19.2012H17.8066V20.0016H18.5812V19.2012Z" fill="black"/>
<path d="M19.3547 19.2012H18.5801V20.0016H19.3547V19.2012Z" fill="black"/>
<path d="M20.1301 19.2012H19.3555V20.0016H20.1301V19.2012Z" fill="black"/>
<path d="M20.9035 19.2012H20.1289V20.0016H20.9035V19.2012Z" fill="black"/>
<path d="M21.6789 19.2012H20.9043V20.0016H21.6789V19.2012Z" fill="black"/>
<path d="M22.4523 19.2012H21.6777V20.0016H22.4523V19.2012Z" fill="black"/>
<path d="M23.2258 19.2012H22.4512V20.0016H23.2258V19.2012Z" fill="black"/>
<g style="mix-blend-mode:color">
<path d="M6.19403 0H5.41943V0.800435H6.19403V0Z" fill="#181425"/>
<path d="M6.9682 0H6.19403V0.800435H6.9682V0Z" fill="#181425"/>
<path d="M7.74164 0H6.96704V0.800435H7.74164V0Z" fill="#181425"/>
<path d="M8.5163 0H7.74164V0.800435H8.5163V0Z" fill="#181425"/>
<path d="M9.29071 0H8.5163V0.800435H9.29071V0Z" fill="#181425"/>
<path d="M10.0649 0H9.29071V0.800435H10.0649V0Z" fill="#181425"/>
<path d="M10.8391 0H10.0649V0.800435H10.8391V0Z" fill="#181425"/>
<path d="M5.41943 0.800435L4.64526 0.800293V1.60073H5.41986L5.41943 0.800435Z" fill="#181425"/>
<path d="M6.19403 0.800435H5.41943L5.41986 1.60073H6.19403V0.800435Z" fill="#181425"/>
<path d="M6.9682 0.800435H6.19403V1.60073L6.9682 1.60097V0.800435Z" fill="#181425"/>
<path d="M7.74164 0.800435H6.96704V1.60073H7.74164V0.800435Z" fill="#181425"/>
<path d="M8.5163 0.800435H7.74164V1.60073L8.5163 1.60097V0.800435Z" fill="#181425"/>
<path d="M9.29071 0.800435H8.5163V1.60097L9.29071 1.60073V0.800435Z" fill="#181425"/>
<path d="M10.0649 0.800435H9.29071V1.60073H10.0649V0.800435Z" fill="#181425"/>
<path d="M10.8391 0.800435H10.0649V1.60073L10.8391 1.60097V0.800435Z" fill="#181425"/>
<path d="M11.614 0.800293L10.8391 0.800435V1.60097L11.614 1.60073V0.800293Z" fill="#181425"/>
<path d="M4.64526 1.60073L3.87085 1.59985V2.40029H4.64545L4.64526 1.60073Z" fill="#181425"/>
<path d="M5.41986 1.60073H4.64526L4.64545 2.40029H5.41986V1.60073Z" fill="#181425"/>
<path d="M6.19403 1.60073H5.41986V2.40029H6.19403V1.60073Z" fill="#181425"/>
<path d="M6.9682 1.59985L6.19403 1.60073V2.40029H6.9682V1.59985Z" fill="#181425"/>
<path d="M7.74164 1.60073H6.96704V2.40029H7.74164V1.60073Z" fill="#181425"/>
<path d="M8.5163 1.59985L7.74164 1.60073V2.40029H8.5163V1.59985Z" fill="#181425"/>
<path d="M9.29071 1.60073L8.5163 1.59985V2.40029H9.29071V1.60073Z" fill="#181425"/>
<path d="M10.0649 1.60073H9.29071V2.40029H10.0649V1.60073Z" fill="#181425"/>
<path d="M10.8391 1.59985L10.0649 1.60073V2.40029H10.8391V1.59985Z" fill="#181425"/>
<path d="M11.614 1.60073L10.8391 1.59985V2.40029H11.614V1.60073Z" fill="#181425"/>
<path d="M12.3874 1.59985H11.6128V2.40029H12.3874V1.59985Z" fill="#181425"/>
<path d="M3.87085 2.40029L3.09595 2.40015V3.20058H3.87055L3.87085 2.40029Z" fill="#181425"/>
<path d="M4.64545 2.40029H3.87085L3.87055 3.20058H4.64545V2.40029Z" fill="#181425"/>
<path d="M5.41986 2.40029H4.64545V3.20058H5.41986V2.40029Z" fill="#181425"/>
<path d="M6.19403 2.40029H5.41986V3.20058H6.19403V2.40029Z" fill="#181425"/>
<path d="M6.9682 2.40029H6.19403V3.20058H6.9682V2.40029Z" fill="#181425"/>
<path d="M7.74164 2.40029H6.96704V3.20058H7.74164V2.40029Z" fill="#181425"/>
<path d="M8.5163 2.40029H7.74164V3.20058H8.5163V2.40029Z" fill="#181425"/>
<path d="M9.29071 2.40029H8.5163V3.20058H9.29071V2.40029Z" fill="#181425"/>
<path d="M10.0649 2.40029H9.29071V3.20058H10.0649V2.40029Z" fill="#181425"/>
<path d="M10.8391 2.40029H10.0649V3.20058H10.8391V2.40029Z" fill="#181425"/>
<path d="M11.614 2.40029H10.8391V3.20058H11.614V2.40029Z" fill="#181425"/>
<path d="M12.3874 2.40029H11.6128V3.20058H12.3874V2.40029Z" fill="#181425"/>
<path d="M13.1618 2.40015L12.3874 2.40029V3.20058H13.1618V2.40015Z" fill="#181425"/>
<path d="M13.9352 2.40015H13.1606V3.20058H13.9352V2.40015Z" fill="#181425"/>
<path d="M14.7101 2.40015H13.9352V3.20058H14.7101V2.40015Z" fill="#181425"/>
<path d="M15.4843 2.40015H14.7101V3.20058H15.4843V2.40015Z" fill="#181425"/>
<path d="M16.2585 2.40015H15.4843V3.20058H16.2585V2.40015Z" fill="#181425"/>
<path d="M17.0329 2.40015H16.2585V3.20058H17.0329V2.40015Z" fill="#181425"/>
<path d="M17.8076 2.40015H17.0329V3.20058H17.8076V2.40015Z" fill="#181425"/>
<path d="M18.581 2.40015H17.8064V3.20058H18.581V2.40015Z" fill="#181425"/>
<path d="M19.3552 2.40015H18.581V3.20058H19.3552V2.40015Z" fill="#181425"/>
<path d="M20.1293 2.40015H19.3552V3.20058H20.1293V2.40015Z" fill="#181425"/>
<path d="M20.9038 2.40015H20.1293V3.20058H20.9038V2.40015Z" fill="#181425"/>
<path d="M21.6787 2.40015H20.9038V3.20058H21.6787V2.40015Z" fill="#181425"/>
<path d="M22.4518 2.40015H21.6772V3.20058H22.4518V2.40015Z" fill="#181425"/>
<path d="M3.87055 3.20058H3.09595V4.00014H3.87055V3.20058Z" fill="#181425"/>
<path d="M4.64545 3.20058H3.87055V4.00014H4.64545V3.20058Z" fill="#181425"/>
<path d="M5.41986 3.20058H4.64545V4.00014H5.41986V3.20058Z" fill="#181425"/>
<path d="M6.19403 3.20058H5.41986V4.00014H6.19403V3.20058Z" fill="#181425"/>
<path d="M6.9682 3.20058H6.19403V4.00014H6.9682V3.20058Z" fill="#181425"/>
<path d="M7.74164 3.20058H6.96704V4.00014H7.74164V3.20058Z" fill="#181425"/>
<path d="M8.5163 3.20058H7.74164V4.00014H8.5163V3.20058Z" fill="#181425"/>
<path d="M9.29071 3.20058H8.5163V4.00014H9.29071V3.20058Z" fill="#181425"/>
<path d="M10.0649 3.20058H9.29071V4.00014H10.0649V3.20058Z" fill="#181425"/>
<path d="M10.8391 3.19946H10.0645L10.0649 4.00014L10.8391 3.9999V3.19946Z" fill="#181425"/>
<path d="M11.614 3.20058H10.8391V3.9999L11.614 4.00014V3.20058Z" fill="#181425"/>
<path d="M12.3874 3.20058H11.6128V4.00014H12.3874V3.20058Z" fill="#181425"/>
<path d="M13.1618 3.20058H12.3874V4.00014H13.1618V3.20058Z" fill="#181425"/>
<path d="M13.9352 3.20058H13.1606V4.00014H13.9352V3.20058Z" fill="#181425"/>
<path d="M14.7101 3.19946H13.9355L13.9352 4.00014L14.7101 3.9999V3.19946Z" fill="#181425"/>
<path d="M15.4843 3.20058L14.7101 3.19946V3.9999L15.4843 4.00014V3.20058Z" fill="#181425"/>
<path d="M16.2585 3.20058H15.4843V4.00014H16.2585V3.20058Z" fill="#181425"/>
<path d="M17.0329 3.20058H16.2585V4.00014H17.0329V3.20058Z" fill="#181425"/>
<path d="M17.8076 3.20058H17.0329V4.00014H17.8076V3.20058Z" fill="#181425"/>
<path d="M18.581 3.20058H17.8064V4.00014H18.581V3.20058Z" fill="#181425"/>
<path d="M19.3552 3.20058H18.581V4.00014H19.3552V3.20058Z" fill="#181425"/>
<path d="M20.1293 3.20058H19.3552V4.00014H20.1293V3.20058Z" fill="#181425"/>
<path d="M20.9038 3.20058H20.1293V4.00014H20.9038V3.20058Z" fill="#181425"/>
<path d="M21.6787 3.20058H20.9038V4.00014H21.6787V3.20058Z" fill="#181425"/>
<path d="M22.4518 3.20058H21.6772V4.00014H22.4518V3.20058Z" fill="#181425"/>
<path d="M23.2263 3.19971L22.4518 3.20058V4.00014H23.2263V3.19971Z" fill="#181425"/>
<path d="M3.87055 4.00014H3.09595V4.80044H3.87055V4.00014Z" fill="#181425"/>
<path d="M4.64545 4.00014H3.87055V4.80044H4.64545V4.00014Z" fill="#181425"/>
<path d="M5.41986 4.00014H4.64545V4.80044H5.41986V4.00014Z" fill="#181425"/>
<path d="M6.19403 4.00014H5.41986V4.80044H6.19403V4.00014Z" fill="#181425"/>
<path d="M6.9682 4.00014H6.19403V4.80044H6.9682V4.00014Z" fill="#181425"/>
<path d="M7.74164 4.00014H6.96704V4.80044H7.74164V4.00014Z" fill="#181425"/>
<path d="M8.5163 4.00014H7.74164V4.80044H8.5163V4.00014Z" fill="#181425"/>
<path d="M9.29071 4.00014H8.5163V4.80044H9.29071V4.00014Z" fill="#181425"/>
<path d="M10.0649 4.00014H9.29071V4.80044H10.0649V4.00014Z" fill="#181425"/>
<path d="M10.8391 3.9999L10.0649 4.00014V4.80044H10.8391V3.9999Z" fill="#181425"/>
<path d="M11.614 4.00014L10.8391 3.9999V4.80044H11.614V4.00014Z" fill="#181425"/>
<path d="M12.3874 4.00014H11.6128V4.80044H12.3874V4.00014Z" fill="#181425"/>
<path d="M13.1618 4.00014H12.3874V4.80044H13.1618V4.00014Z" fill="#181425"/>
<path d="M13.9352 4.00014H13.1606V4.80044H13.9352V4.00014Z" fill="#181425"/>
<path d="M14.7101 3.9999L13.9352 4.00014V4.80044H14.7101V3.9999Z" fill="#181425"/>
<path d="M15.4843 4.00014L14.7101 3.9999V4.80044H15.4843V4.00014Z" fill="#181425"/>
<path d="M16.2585 4.00014H15.4843V4.80044H16.2585V4.00014Z" fill="#181425"/>
<path d="M17.0329 4.00014H16.2585V4.80044H17.0329V4.00014Z" fill="#181425"/>
<path d="M17.8076 4.00014H17.0329V4.80044H17.8076V4.00014Z" fill="#181425"/>
<path d="M18.581 4.00014H17.8064V4.80044H18.581V4.00014Z" fill="#181425"/>
<path d="M19.3552 4.00014H18.581V4.80044H19.3552V4.00014Z" fill="#181425"/>
<path d="M20.1293 4.00014H19.3552V4.80044H20.1293V4.00014Z" fill="#181425"/>
<path d="M20.9038 4.00014H20.1293V4.80044H20.9038V4.00014Z" fill="#181425"/>
<path d="M21.6787 4.00014H20.9038V4.80044H21.6787V4.00014Z" fill="#181425"/>
<path d="M22.4518 4.00014H21.6772V4.80044H22.4518V4.00014Z" fill="#181425"/>
<path d="M23.2263 4.00014H22.4518V4.80044H23.2263V4.00014Z" fill="#181425"/>
<path d="M23.9997 4H23.2251V4.80044H23.9997V4Z" fill="#181425"/>
<path d="M3.87055 4.80044H3.09595V5.60073H3.87055V4.80044Z" fill="#181425"/>
<path d="M4.64545 4.80044H3.87055V5.60073L4.64545 5.60097V4.80044Z" fill="#181425"/>
<path d="M5.41986 4.80044H4.64545V5.60097L5.41986 5.60073V4.80044Z" fill="#181425"/>
<path d="M6.19403 4.80044H5.41986V5.60073H6.19403V4.80044Z" fill="#181425"/>
<path d="M6.9682 4.80044H6.19403V5.60073L6.9682 5.60097V4.80044Z" fill="#181425"/>
<path d="M7.74164 4.80044H6.96704V5.60073H7.74164V4.80044Z" fill="#181425"/>
<path d="M8.5163 4.80044H7.74164V5.60073L8.5163 5.60097V4.80044Z" fill="#181425"/>
<path d="M9.29071 4.80044H8.5163V5.60097L9.29071 5.60073V4.80044Z" fill="#181425"/>
<path d="M10.0649 4.80044H9.29071V5.60073H10.0649V4.80044Z" fill="#181425"/>
<path d="M10.8391 4.80044H10.0649V5.60073L10.8391 5.60097V4.80044Z" fill="#181425"/>
<path d="M11.614 4.80044H10.8391V5.60097L11.614 5.60073V4.80044Z" fill="#181425"/>
<path d="M12.3874 4.80044H11.6128V5.60073H12.3874V4.80044Z" fill="#181425"/>
<path d="M13.1618 4.80044H12.3874V5.60073H13.1618V4.80044Z" fill="#181425"/>
<path d="M13.9352 4.80044H13.1606V5.60073H13.9352V4.80044Z" fill="#181425"/>
<path d="M14.7101 4.80044H13.9352V5.60073L14.7101 5.60097V4.80044Z" fill="#181425"/>
<path d="M15.4843 4.80044H14.7101V5.60097L15.4843 5.60073V4.80044Z" fill="#181425"/>
<path d="M16.2585 4.80044H15.4843V5.60073H16.2585V4.80044Z" fill="#181425"/>
<path d="M17.0329 4.80044H16.2585V5.60073L17.0329 5.60097V4.80044Z" fill="#181425"/>
<path d="M17.8076 4.80044H17.0329V5.60097L17.8076 5.60073V4.80044Z" fill="#181425"/>
<path d="M18.581 4.80044H17.8064V5.60097H18.581V4.80044Z" fill="#181425"/>
<path d="M19.3552 4.80044H18.581V5.60097L19.3552 5.60073V4.80044Z" fill="#181425"/>
<path d="M20.1293 4.80044H19.3552V5.60073H20.1293V4.80044Z" fill="#181425"/>
<path d="M20.9038 4.80044H20.1293V5.60073L20.9038 5.60097V4.80044Z" fill="#181425"/>
<path d="M21.6787 4.80044H20.9038V5.60097L21.6787 5.60073V4.80044Z" fill="#181425"/>
<path d="M22.4518 4.80044H21.6772V5.60097H22.4518V4.80044Z" fill="#181425"/>
<path d="M23.2263 4.80044H22.4518V5.60097L23.2263 5.60073V4.80044Z" fill="#181425"/>
<path d="M23.9997 4.80044H23.2251V5.60073H23.9997V4.80044Z" fill="#181425"/>
<path d="M3.87055 5.60073H3.09595V6.40029H3.87055V5.60073Z" fill="#181425"/>
<path d="M4.64545 5.59985L3.87055 5.60073V6.40029H4.64545V5.59985Z" fill="#181425"/>
<path d="M5.41986 5.60073L4.64545 5.59985V6.40029H5.41986V5.60073Z" fill="#181425"/>
<path d="M6.19403 5.60073H5.41986V6.40029H6.19403V5.60073Z" fill="#181425"/>
<path d="M6.9682 5.59985L6.19403 5.60073V6.40029H6.9682V5.59985Z" fill="#181425"/>
<path d="M7.74164 5.60073H6.96704V6.40029H7.74164V5.60073Z" fill="#181425"/>
<path d="M8.5163 5.59985L7.74164 5.60073V6.40029H8.5163V5.59985Z" fill="#181425"/>
<path d="M9.29071 5.60073L8.5163 5.59985V6.40029H9.29071V5.60073Z" fill="#181425"/>
<path d="M10.0649 5.60073H9.29071V6.40029H10.0649V5.60073Z" fill="#181425"/>
<path d="M10.8391 5.59985L10.0649 5.60073V6.40029H10.8391V5.59985Z" fill="#181425"/>
<path d="M11.614 5.60073L10.8391 5.59985V6.40029H11.614V5.60073Z" fill="#181425"/>
<path d="M12.3874 5.60073H11.6128V6.40029H12.3874V5.60073Z" fill="#181425"/>
<path d="M13.1618 5.60073H12.3874V6.40029H13.1618V5.60073Z" fill="#181425"/>
<path d="M13.9352 5.60073H13.1606V6.40029H13.9352V5.60073Z" fill="#181425"/>
<path d="M14.7101 5.59985L13.9352 5.60073V6.40029H14.7101V5.59985Z" fill="#181425"/>
<path d="M15.4843 5.60073L14.7101 5.59985V6.40029H15.4843V5.60073Z" fill="#181425"/>
<path d="M16.2585 5.60073H15.4843V6.40029H16.2585V5.60073Z" fill="#181425"/>
<path d="M17.0329 5.59985L16.2585 5.60073V6.40029H17.0329V5.59985Z" fill="#181425"/>
<path d="M17.8076 5.60073L17.0329 5.59985V6.40029H17.8076V5.60073Z" fill="#181425"/>
<path d="M18.581 5.59985H17.8064V6.40029H18.581V5.59985Z" fill="#181425"/>
<path d="M19.3552 5.60073L18.581 5.59985V6.40029H19.3552V5.60073Z" fill="#181425"/>
<path d="M20.1293 5.60073H19.3552V6.40029H20.1293V5.60073Z" fill="#181425"/>
<path d="M20.9038 5.59985L20.1293 5.60073V6.40029H20.9038V5.59985Z" fill="#181425"/>
<path d="M21.6787 5.60073L20.9038 5.59985V6.40029H21.6787V5.60073Z" fill="#181425"/>
<path d="M22.4518 5.59985H21.6772V6.40029H22.4518V5.59985Z" fill="#181425"/>
<path d="M23.2263 5.60073L22.4518 5.59985V6.40029H23.2263V5.60073Z" fill="#181425"/>
<path d="M23.9997 5.60073H23.2251V6.40029H23.9997V5.60073Z" fill="#181425"/>
<path d="M1.5495 6.40015H0.774902V7.20058H1.5495V6.40015Z" fill="#181425"/>
<path d="M2.32294 6.40015H1.54834V7.20058H2.32294V6.40015Z" fill="#181425"/>
<path d="M3.09735 6.40015H2.32294V7.20058H3.09735V6.40015Z" fill="#181425"/>
<path d="M3.87055 6.40029H3.09595V7.20058H3.87055V6.40029Z" fill="#181425"/>
<path d="M4.64545 6.40029H3.87055V7.20058H4.64545V6.40029Z" fill="#181425"/>
<path d="M5.41986 6.40029H4.64545V7.20058H5.41986V6.40029Z" fill="#181425"/>
<path d="M6.19403 6.40029H5.41986V7.20058H6.19403V6.40029Z" fill="#181425"/>
<path d="M6.9682 6.40029H6.19403V7.20058H6.9682V6.40029Z" fill="#181425"/>
<path d="M7.74164 6.40029H6.96704V7.20058H7.74164V6.40029Z" fill="#181425"/>
<path d="M8.5163 6.40029H7.74164V7.20058H8.5163V6.40029Z" fill="#181425"/>
<path d="M9.29071 6.40029H8.5163V7.20058H9.29071V6.40029Z" fill="#181425"/>
<path d="M10.0649 6.40029H9.29071V7.20058H10.0649V6.40029Z" fill="#181425"/>
<path d="M10.8391 6.40029H10.0649V7.20058H10.8391V6.40029Z" fill="#181425"/>
<path d="M11.614 6.40029H10.8391V7.20058H11.614V6.40029Z" fill="#181425"/>
<path d="M12.3874 6.40029H11.6128V7.20058H12.3874V6.40029Z" fill="#181425"/>
<path d="M13.1618 6.40029H12.3874V7.20058H13.1618V6.40029Z" fill="#181425"/>
<path d="M13.9352 6.40029H13.1606V7.20058H13.9352V6.40029Z" fill="#181425"/>
<path d="M14.7101 6.40029H13.9352V7.20058H14.7101V6.40029Z" fill="#181425"/>
<path d="M15.4843 6.40029H14.7101V7.20058H15.4843V6.40029Z" fill="#181425"/>
<path d="M16.2585 6.40029H15.4843V7.20058H16.2585V6.40029Z" fill="#181425"/>
<path d="M17.0329 6.40029H16.2585V7.20058H17.0329V6.40029Z" fill="#181425"/>
<path d="M17.8076 6.40029H17.0329V7.20058H17.8076V6.40029Z" fill="#181425"/>
<path d="M18.581 6.40029H17.8064V7.20058H18.581V6.40029Z" fill="#181425"/>
<path d="M19.3552 6.40029H18.581V7.20058H19.3552V6.40029Z" fill="#181425"/>
<path d="M20.1293 6.40029H19.3552V7.20058H20.1293V6.40029Z" fill="#181425"/>
<path d="M20.9038 6.40029H20.1293V7.20058H20.9038V6.40029Z" fill="#181425"/>
<path d="M21.6787 6.40029H20.9038V7.20058H21.6787V6.40029Z" fill="#181425"/>
<path d="M22.4518 6.40029H21.6772V7.20058H22.4518V6.40029Z" fill="#181425"/>
<path d="M23.2263 6.40029H22.4518V7.20058H23.2263V6.40029Z" fill="#181425"/>
<path d="M23.9997 6.40029H23.2251V7.20058H23.9997V6.40029Z" fill="#181425"/>
<path d="M0.774902 7.20058L0 7.20068V8.00112H0.774601L0.774902 7.20058Z" fill="#181425"/>
<path d="M1.5495 7.20058H0.774902L0.774601 8.00112H1.5495V7.20058Z" fill="#181425"/>
<path d="M2.32294 7.20058H1.54834V8.00112H2.32294V7.20058Z" fill="#181425"/>
<path d="M3.09735 7.20058H2.32294V8.00112H3.09735V7.20058Z" fill="#181425"/>
<path d="M3.87055 7.20058H3.09595V8.00112H3.87055V7.20058Z" fill="#181425"/>
<path d="M4.64545 7.20058H3.87055V8.00112H4.64545V7.20058Z" fill="#181425"/>
<path d="M5.41986 7.20058H4.64545V8.00112H5.41986V7.20058Z" fill="#181425"/>
<path d="M6.19403 7.20058H5.41986V8.00112H6.19403V7.20058Z" fill="#181425"/>
<path d="M6.9682 7.20058H6.19403V8.00112H6.9682V7.20058Z" fill="#181425"/>
<path d="M7.74164 7.20058H6.96704V8.00112H7.74164V7.20058Z" fill="#181425"/>
<path d="M8.5163 7.20058H7.74164V8.00112H8.5163V7.20058Z" fill="#181425"/>
<path d="M9.29071 7.20058H8.5163V8.00112H9.29071V7.20058Z" fill="#181425"/>
<path d="M10.0649 7.20058H9.29071V8.00112H10.0649V7.20058Z" fill="#181425"/>
<path d="M10.8391 7.20058H10.0649V8.00112H10.8391V7.20058Z" fill="#181425"/>
<path d="M11.614 7.20058H10.8391V8.00112H11.614V7.20058Z" fill="#181425"/>
<path d="M12.3874 7.20058H11.6128V8.00112H12.3874V7.20058Z" fill="#181425"/>
<path d="M13.1618 7.20058H12.3874V8.00112H13.1618V7.20058Z" fill="#181425"/>
<path d="M13.9352 7.20058H13.1606V8.00112H13.9352V7.20058Z" fill="#181425"/>
<path d="M14.7101 7.20058H13.9352V8.00112H14.7101V7.20058Z" fill="#181425"/>
<path d="M15.4843 7.20058H14.7101V8.00112H15.4843V7.20058Z" fill="#181425"/>
<path d="M16.2585 7.20058H15.4843V8.00112H16.2585V7.20058Z" fill="#181425"/>
<path d="M17.0329 7.20058H16.2585V8.00112H17.0329V7.20058Z" fill="#181425"/>
<path d="M17.8076 7.20058H17.0329V8.00112H17.8076V7.20058Z" fill="#181425"/>
<path d="M18.581 7.20058H17.8064V8.00112H18.581V7.20058Z" fill="#181425"/>
<path d="M19.3552 7.20058H18.581V8.00112H19.3552V7.20058Z" fill="#181425"/>
<path d="M20.1293 7.20058H19.3552V8.00112H20.1293V7.20058Z" fill="#181425"/>
<path d="M20.9038 7.20058H20.1293V8.00112H20.9038V7.20058Z" fill="#181425"/>
<path d="M21.6787 7.20058H20.9038V8.00112H21.6787V7.20058Z" fill="#181425"/>
<path d="M22.4518 7.20058H21.6772V8.00112H22.4518V7.20058Z" fill="#181425"/>
<path d="M23.2263 7.20058H22.4518V8.00112H23.2263V7.20058Z" fill="#181425"/>
<path d="M23.9997 7.20058H23.2251V8.00112H23.9997V7.20058Z" fill="#181425"/>
<path d="M0.774601 8H0V8.80044H0.774601V8Z" fill="#181425"/>
<path d="M1.5495 8H0.774601V8.80044H1.5495V8Z" fill="#181425"/>
<path d="M2.32294 8H1.54834V8.80044H2.32294V8Z" fill="#181425"/>
<path d="M3.09735 8H2.32294V8.80044H3.09735V8Z" fill="#181425"/>
<path d="M3.87055 8H3.09595V8.80044H3.87055V8Z" fill="#181425"/>
<path d="M4.64545 8H3.87055V8.80044H4.64545V8Z" fill="#181425"/>
<path d="M5.41986 8H4.64545V8.80044H5.41986V8Z" fill="#181425"/>
<path d="M6.19403 8H5.41986V8.80044H6.19403V8Z" fill="#181425"/>
<path d="M6.9682 8H6.19403V8.80044H6.9682V8Z" fill="#181425"/>
<path d="M7.74164 8H6.96704V8.80044H7.74164V8Z" fill="#181425"/>
<path d="M8.5163 8H7.74164V8.80044H8.5163V8Z" fill="#181425"/>
<path d="M9.29071 8H8.5163V8.80044H9.29071V8Z" fill="#181425"/>
<path d="M10.0649 8H9.29071V8.80044H10.0649V8Z" fill="#181425"/>
<path d="M10.8391 8H10.0649V8.80044H10.8391V8Z" fill="#181425"/>
<path d="M11.614 8H10.8391V8.80044H11.614V8Z" fill="#181425"/>
<path d="M12.3874 8H11.6128V8.80044H12.3874V8Z" fill="#181425"/>
<path d="M13.1618 8H12.3874V8.80044H13.1618V8Z" fill="#181425"/>
<path d="M13.9352 8H13.1606V8.80044H13.9352V8Z" fill="#181425"/>
<path d="M14.7101 8H13.9352V8.80044H14.7101V8Z" fill="#181425"/>
<path d="M15.4843 8H14.7101V8.80044H15.4843V8Z" fill="#181425"/>
<path d="M16.2585 8H15.4843V8.80044H16.2585V8Z" fill="#181425"/>
<path d="M17.0329 8H16.2585V8.80044H17.0329V8Z" fill="#181425"/>
<path d="M17.8076 8H17.0329V8.80044H17.8076V8Z" fill="#181425"/>
<path d="M18.581 8H17.8064V8.80044H18.581V8Z" fill="#181425"/>
<path d="M19.3552 8H18.581V8.80044H19.3552V8Z" fill="#181425"/>
<path d="M20.1293 8H19.3552V8.80044H20.1293V8Z" fill="#181425"/>
<path d="M20.9038 8H20.1293V8.80044H20.9038V8Z" fill="#181425"/>
<path d="M21.6787 8H20.9038V8.80044H21.6787V8Z" fill="#181425"/>
<path d="M22.4518 8H21.6772V8.80044H22.4518V8Z" fill="#181425"/>
<path d="M23.2263 8H22.4518V8.80044H23.2263V8Z" fill="#181425"/>
<path d="M23.9997 8H23.2251V8.80044H23.9997V8Z" fill="#181425"/>
<path d="M0.774601 8.80044H0V9.60097H0.774601V8.80044Z" fill="#181425"/>
<path d="M1.5495 8.80044H0.774601V9.60097L1.5495 9.60073V8.80044Z" fill="#181425"/>
<path d="M2.32294 8.80044H1.54834V9.60073H2.32294V8.80044Z" fill="#181425"/>
<path d="M3.09735 8.80044H2.32294V9.60073L3.09735 9.60097V8.80044Z" fill="#181425"/>
<path d="M3.87055 8.80044H3.09595V9.60073H3.87055V8.80044Z" fill="#181425"/>
<path d="M4.64545 8.80044H3.87055V9.60073L4.64545 9.60097V8.80044Z" fill="#181425"/>
<path d="M5.41986 8.80044H4.64545V9.60097L5.41986 9.60073V8.80044Z" fill="#181425"/>
<path d="M6.19403 8.80044H5.41986V9.60073H6.19403V8.80044Z" fill="#181425"/>
<path d="M6.9682 8.80044H6.19403V9.60073L6.9682 9.60097V8.80044Z" fill="#181425"/>
<path d="M7.74164 8.80044H6.96704V9.60073H7.74164V8.80044Z" fill="#181425"/>
<path d="M8.5163 8.80044H7.74164V9.60073L8.5163 9.60097V8.80044Z" fill="#181425"/>
<path d="M9.29071 8.80044H8.5163V9.60097L9.29071 9.60073V8.80044Z" fill="#181425"/>
<path d="M10.0649 8.80044H9.29071V9.60073H10.0649V8.80044Z" fill="#181425"/>
<path d="M10.8391 8.80044H10.0649V9.60073L10.8391 9.60097V8.80044Z" fill="#181425"/>
<path d="M11.614 8.80044H10.8391V9.60097L11.614 9.60073V8.80044Z" fill="#181425"/>
<path d="M12.3874 8.80044H11.6128V9.60073H12.3874V8.80044Z" fill="#181425"/>
<path d="M13.1618 8.80044H12.3874V9.60073H13.1618V8.80044Z" fill="#181425"/>
<path d="M13.9352 8.80044H13.1606V9.60073H13.9352V8.80044Z" fill="#181425"/>
<path d="M14.7101 8.80044H13.9352V9.60073L14.7101 9.60097V8.80044Z" fill="#181425"/>
<path d="M15.4843 8.80044H14.7101V9.60097L15.4843 9.60073V8.80044Z" fill="#181425"/>
<path d="M16.2585 8.80044H15.4843V9.60073H16.2585V8.80044Z" fill="#181425"/>
<path d="M17.0329 8.80044H16.2585V9.60073L17.0329 9.60097V8.80044Z" fill="#181425"/>
<path d="M17.8076 8.80044H17.0329V9.60097L17.8076 9.60073V8.80044Z" fill="#181425"/>
<path d="M18.581 8.80044H17.8064V9.60097H18.581V8.80044Z" fill="#181425"/>
<path d="M19.3552 8.80044H18.581V9.60097L19.3552 9.60073V8.80044Z" fill="#181425"/>
<path d="M20.1293 8.80044H19.3552V9.60073H20.1293V8.80044Z" fill="#181425"/>
<path d="M20.9038 8.80044H20.1293V9.60073L20.9038 9.60097V8.80044Z" fill="#181425"/>
<path d="M21.6787 8.80044H20.9038V9.60097L21.6787 9.60073V8.80044Z" fill="#181425"/>
<path d="M22.4518 8.80044H21.6772V9.60097H22.4518V8.80044Z" fill="#181425"/>
<path d="M23.2263 8.80044H22.4518V9.60097L23.2263 9.60073V8.80044Z" fill="#181425"/>
<path d="M23.9997 8.80044H23.2251V9.60073H23.9997V8.80044Z" fill="#181425"/>
<path d="M1.5495 9.60073L0.774902 9.59985V10.4003H1.5495V9.60073Z" fill="#181425"/>
<path d="M2.32294 9.60073H1.54834V10.4003H2.32294V9.60073Z" fill="#181425"/>
<path d="M3.09735 9.59985L2.32294 9.60073V10.4003H3.09735V9.59985Z" fill="#181425"/>
<path d="M3.87055 9.60073H3.09595V10.4003H3.87055V9.60073Z" fill="#181425"/>
<path d="M4.64545 9.59985L3.87055 9.60073V10.4003H4.64545V9.59985Z" fill="#181425"/>
<path d="M5.41986 9.60073L4.64545 9.59985V10.4003H5.41986V9.60073Z" fill="#181425"/>
<path d="M6.19403 9.60073H5.41986V10.4003H6.19403V9.60073Z" fill="#181425"/>
<path d="M6.9682 9.59985L6.19403 9.60073V10.4003H6.9682V9.59985Z" fill="#181425"/>
<path d="M7.74164 9.60073H6.96704V10.4003H7.74164V9.60073Z" fill="#181425"/>
<path d="M8.5163 9.59985L7.74164 9.60073V10.4003H8.5163V9.59985Z" fill="#181425"/>
<path d="M9.29071 9.60073L8.5163 9.59985V10.4003H9.29071V9.60073Z" fill="#181425"/>
<path d="M10.0649 9.60073H9.29071V10.4003H10.0649V9.60073Z" fill="#181425"/>
<path d="M10.8391 9.59985L10.0649 9.60073V10.4003H10.8391V9.59985Z" fill="#181425"/>
<path d="M11.614 9.60073L10.8391 9.59985V10.4003H11.614V9.60073Z" fill="#181425"/>
<path d="M12.3874 9.60073H11.6128V10.4003H12.3874V9.60073Z" fill="#181425"/>
<path d="M13.1618 9.60073H12.3874V10.4003H13.1618V9.60073Z" fill="#181425"/>
<path d="M13.9352 9.60073H13.1606V10.4003H13.9352V9.60073Z" fill="#181425"/>
<path d="M14.7101 9.59985L13.9352 9.60073V10.4003H14.7101V9.59985Z" fill="#181425"/>
<path d="M15.4843 9.60073L14.7101 9.59985V10.4003H15.4843V9.60073Z" fill="#181425"/>
<path d="M16.2585 9.60073H15.4843V10.4003H16.2585V9.60073Z" fill="#181425"/>
<path d="M17.0329 9.59985L16.2585 9.60073V10.4003H17.0329V9.59985Z" fill="#181425"/>
<path d="M17.8076 9.60073L17.0329 9.59985V10.4003H17.8076V9.60073Z" fill="#181425"/>
<path d="M18.581 9.59985H17.8064V10.4003H18.581V9.59985Z" fill="#181425"/>
<path d="M19.3552 9.60073L18.581 9.59985V10.4003H19.3552V9.60073Z" fill="#181425"/>
<path d="M20.1293 9.60073H19.3552V10.4003H20.1293V9.60073Z" fill="#181425"/>
<path d="M20.9038 9.59985L20.1293 9.60073V10.4003H20.9038V9.59985Z" fill="#181425"/>
<path d="M21.6787 9.60073L20.9038 9.59985V10.4003H21.6787V9.60073Z" fill="#181425"/>
<path d="M22.4518 9.59985H21.6772V10.4003H22.4518V9.59985Z" fill="#181425"/>
<path d="M23.2263 9.60073L22.4518 9.59985V10.4003H23.2263V9.60073Z" fill="#181425"/>
<path d="M23.9997 9.60073H23.2251V10.4003H23.9997V9.60073Z" fill="#181425"/>
<path d="M1.5495 10.4003H0.774902V11.2006H1.5495V10.4003Z" fill="#181425"/>
<path d="M2.32294 10.4003H1.54834V11.2006H2.32294V10.4003Z" fill="#181425"/>
<path d="M3.09735 10.4003H2.32294V11.2006H3.09735V10.4003Z" fill="#181425"/>
<path d="M3.87055 10.4003H3.09595V11.2006H3.87055V10.4003Z" fill="#181425"/>
<path d="M4.64545 10.4003H3.87055V11.2006H4.64545V10.4003Z" fill="#181425"/>
<path d="M5.41986 10.4003H4.64545V11.2006H5.41986V10.4003Z" fill="#181425"/>
<path d="M6.19403 10.4003H5.41986V11.2006H6.19403V10.4003Z" fill="#181425"/>
<path d="M6.9682 10.4003H6.19403V11.2006H6.9682V10.4003Z" fill="#181425"/>
<path d="M7.74164 10.4003H6.96704V11.2006H7.74164V10.4003Z" fill="#181425"/>
<path d="M8.5163 10.4003H7.74164V11.2006H8.5163V10.4003Z" fill="#181425"/>
<path d="M9.29071 10.4003H8.5163V11.2006H9.29071V10.4003Z" fill="#181425"/>
<path d="M10.0649 10.4003H9.29071V11.2006H10.0649V10.4003Z" fill="#181425"/>
<path d="M10.8391 10.4003H10.0649V11.2006H10.8391V10.4003Z" fill="#181425"/>
<path d="M11.614 10.4003H10.8391V11.2006H11.614V10.4003Z" fill="#181425"/>
<path d="M12.3874 10.4003H11.6128V11.2006H12.3874V10.4003Z" fill="#181425"/>
<path d="M13.1618 10.4003H12.3874V11.2006H13.1618V10.4003Z" fill="#181425"/>
<path d="M13.9352 10.4003H13.1606V11.2006H13.9352V10.4003Z" fill="#181425"/>
<path d="M14.7101 10.4003H13.9352V11.2006H14.7101V10.4003Z" fill="#181425"/>
<path d="M15.4843 10.4003H14.7101V11.2006H15.4843V10.4003Z" fill="#181425"/>
<path d="M16.2585 10.4003H15.4843V11.2006H16.2585V10.4003Z" fill="#181425"/>
<path d="M17.0329 10.4003H16.2585V11.2006H17.0329V10.4003Z" fill="#181425"/>
<path d="M17.8076 10.4003H17.0329V11.2006H17.8076V10.4003Z" fill="#181425"/>
<path d="M18.581 10.4003H17.8064V11.2006H18.581V10.4003Z" fill="#181425"/>
<path d="M19.3552 10.4003H18.581V11.2006H19.3552V10.4003Z" fill="#181425"/>
<path d="M20.1293 10.4003H19.3552V11.2006H20.1293V10.4003Z" fill="#181425"/>
<path d="M20.9038 10.4003H20.1293V11.2006H20.9038V10.4003Z" fill="#181425"/>
<path d="M21.6787 10.4003H20.9038V11.2006H21.6787V10.4003Z" fill="#181425"/>
<path d="M22.4518 10.4003H21.6772V11.2006H22.4518V10.4003Z" fill="#181425"/>
<path d="M23.2263 10.4003H22.4518V11.2006H23.2263V10.4003Z" fill="#181425"/>
<path d="M23.9997 10.4003H23.2251V11.2006H23.9997V10.4003Z" fill="#181425"/>
<path d="M1.5495 11.2006H0.774902V12.0011H1.5495V11.2006Z" fill="#181425"/>
<path d="M2.32294 11.2006H1.54834V12.0011H2.32294V11.2006Z" fill="#181425"/>
<path d="M3.09735 11.2006H2.32294V12.0011H3.09735V11.2006Z" fill="#181425"/>
<path d="M3.87055 11.2006H3.09595V12.0011H3.87055V11.2006Z" fill="#181425"/>
<path d="M4.64545 11.2006H3.87055V12.0011H4.64545V11.2006Z" fill="#181425"/>
<path d="M5.41986 11.2006H4.64545V12.0011H5.41986V11.2006Z" fill="#181425"/>
<path d="M6.19403 11.2006H5.41986V12.0011H6.19403V11.2006Z" fill="#181425"/>
<path d="M6.9682 11.2006H6.19403V12.0011H6.9682V11.2006Z" fill="#181425"/>
<path d="M7.74164 11.2006H6.96704V12.0011H7.74164V11.2006Z" fill="#181425"/>
<path d="M8.5163 11.2006H7.74164V12.0011H8.5163V11.2006Z" fill="#181425"/>
<path d="M9.29071 11.2006H8.5163V12.0011H9.29071V11.2006Z" fill="#181425"/>
<path d="M10.0649 11.2006H9.29071V12.0011H10.0649V11.2006Z" fill="#181425"/>
<path d="M10.8391 11.2006H10.0649V12.0011H10.8391V11.2006Z" fill="#181425"/>
<path d="M11.614 11.2006H10.8391V12.0011H11.614V11.2006Z" fill="#181425"/>
<path d="M12.3874 11.2006H11.6128V12.0011H12.3874V11.2006Z" fill="#181425"/>
<path d="M13.1618 11.2006H12.3874V12.0011H13.1618V11.2006Z" fill="#181425"/>
<path d="M13.9352 11.2006H13.1606V12.0011H13.9352V11.2006Z" fill="#181425"/>
<path d="M14.7101 11.2006H13.9352V12.0011H14.7101V11.2006Z" fill="#181425"/>
<path d="M15.4843 11.2006H14.7101V12.0011H15.4843V11.2006Z" fill="#181425"/>
<path d="M16.2585 11.2006H15.4843V12.0011H16.2585V11.2006Z" fill="#181425"/>
<path d="M17.0329 11.2006H16.2585V12.0011H17.0329V11.2006Z" fill="#181425"/>
<path d="M17.8076 11.2006H17.0329V12.0011H17.8076V11.2006Z" fill="#181425"/>
<path d="M18.581 11.2006H17.8064V12.0011H18.581V11.2006Z" fill="#181425"/>
<path d="M19.3552 11.2006H18.581V12.0011H19.3552V11.2006Z" fill="#181425"/>
<path d="M20.1293 11.2006H19.3552V12.0011H20.1293V11.2006Z" fill="#181425"/>
<path d="M20.9038 11.2006H20.1293V12.0011H20.9038V11.2006Z" fill="#181425"/>
<path d="M21.6787 11.2006H20.9038V12.0011H21.6787V11.2006Z" fill="#181425"/>
<path d="M22.4518 11.2006H21.6772V12.0011H22.4518V11.2006Z" fill="#181425"/>
<path d="M23.2263 11.2006H22.4518V12.0011H23.2263V11.2006Z" fill="#181425"/>
<path d="M23.9997 11.2006H23.2251V12.0011H23.9997V11.2006Z" fill="#181425"/>
<path d="M2.32294 12H1.54834V12.8004H2.32294V12Z" fill="#181425"/>
<path d="M3.09735 12H2.32294V12.8004H3.09735V12Z" fill="#181425"/>
<path d="M3.87055 12H3.09595V12.8004H3.87055V12Z" fill="#181425"/>
<path d="M4.64545 12H3.87055V12.8004H4.64545V12Z" fill="#181425"/>
<path d="M5.41986 12H4.64545V12.8004H5.41986V12Z" fill="#181425"/>
<path d="M6.19403 12H5.41986V12.8004H6.19403V12Z" fill="#181425"/>
<path d="M6.9682 12H6.19403V12.8004H6.9682V12Z" fill="#181425"/>
<path d="M7.74164 12H6.96704V12.8004H7.74164V12Z" fill="#181425"/>
<path d="M8.5163 12H7.74164V12.8004H8.5163V12Z" fill="#181425"/>
<path d="M9.29071 12H8.5163V12.8004H9.29071V12Z" fill="#181425"/>
<path d="M10.0649 12H9.29071V12.8004H10.0649V12Z" fill="#181425"/>
<path d="M10.8391 12H10.0649V12.8004H10.8391V12Z" fill="#181425"/>
<path d="M11.614 12H10.8391V12.8004H11.614V12Z" fill="#181425"/>
<path d="M12.3874 12H11.6128V12.8004H12.3874V12Z" fill="#181425"/>
<path d="M13.1618 12H12.3874V12.8004H13.1618V12Z" fill="#181425"/>
<path d="M13.9352 12H13.1606V12.8004H13.9352V12Z" fill="#181425"/>
<path d="M14.7101 12H13.9352V12.8004H14.7101V12Z" fill="#181425"/>
<path d="M15.4843 12H14.7101V12.8004H15.4843V12Z" fill="#181425"/>
<path d="M16.2585 12H15.4843V12.8004H16.2585V12Z" fill="#181425"/>
<path d="M17.0329 12H16.2585V12.8004H17.0329V12Z" fill="#181425"/>
<path d="M17.8076 12H17.0329V12.8004H17.8076V12Z" fill="#181425"/>
<path d="M18.581 12H17.8064V12.8004H18.581V12Z" fill="#181425"/>
<path d="M19.3552 12H18.581V12.8004H19.3552V12Z" fill="#181425"/>
<path d="M20.1293 12H19.3552V12.8004H20.1293V12Z" fill="#181425"/>
<path d="M20.9038 12H20.1293V12.8004H20.9038V12Z" fill="#181425"/>
<path d="M21.6787 12H20.9038V12.8004H21.6787V12Z" fill="#181425"/>
<path d="M22.4518 12H21.6772V12.8004H22.4518V12Z" fill="#181425"/>
<path d="M23.2263 12H22.4518V12.8004H23.2263V12Z" fill="#181425"/>
<path d="M23.9997 12H23.2251V12.8004H23.9997V12Z" fill="#181425"/>
<path d="M2.32294 12.8004H1.54834V13.6007H2.32294V12.8004Z" fill="#181425"/>
<path d="M3.09735 12.8004H2.32294V13.6007L3.09735 13.601V12.8004Z" fill="#181425"/>
<path d="M3.87055 12.8004H3.09595V13.6007H3.87055V12.8004Z" fill="#181425"/>
<path d="M4.64545 12.8004H3.87055V13.6007L4.64545 13.601V12.8004Z" fill="#181425"/>
<path d="M5.41986 12.8004H4.64545V13.601L5.41986 13.6007V12.8004Z" fill="#181425"/>
<path d="M6.19403 12.8004H5.41986V13.6007H6.19403V12.8004Z" fill="#181425"/>
<path d="M6.9682 12.8004H6.19403V13.6007L6.9682 13.601V12.8004Z" fill="#181425"/>
<path d="M7.74164 12.8004H6.96704V13.6007H7.74164V12.8004Z" fill="#181425"/>
<path d="M8.5163 12.8004H7.74164V13.6007L8.5163 13.601V12.8004Z" fill="#181425"/>
<path d="M9.29071 12.8004H8.5163V13.601L9.29071 13.6007V12.8004Z" fill="#181425"/>
<path d="M10.0649 12.8004H9.29071V13.6007H10.0649V12.8004Z" fill="#181425"/>
<path d="M10.8391 12.8004H10.0649V13.6007L10.8391 13.601V12.8004Z" fill="#181425"/>
<path d="M11.614 12.8004H10.8391V13.601L11.614 13.6007V12.8004Z" fill="#181425"/>
<path d="M12.3874 12.8004H11.6128V13.6007H12.3874V12.8004Z" fill="#181425"/>
<path d="M13.1618 12.8004H12.3874V13.6007H13.1618V12.8004Z" fill="#181425"/>
<path d="M13.9352 12.8004H13.1606V13.6007H13.9352V12.8004Z" fill="#181425"/>
<path d="M14.7101 12.8004H13.9352V13.6007L14.7101 13.601V12.8004Z" fill="#181425"/>
<path d="M15.4843 12.8004H14.7101V13.601L15.4843 13.6007V12.8004Z" fill="#181425"/>
<path d="M16.2585 12.8004H15.4843V13.6007H16.2585V12.8004Z" fill="#181425"/>
<path d="M17.0329 12.8004H16.2585V13.6007L17.0329 13.601V12.8004Z" fill="#181425"/>
<path d="M17.8076 12.8004H17.0329V13.601L17.8076 13.6007V12.8004Z" fill="#181425"/>
<path d="M18.581 12.8004H17.8064V13.601H18.581V12.8004Z" fill="#181425"/>
<path d="M19.3552 12.8004H18.581V13.601L19.3552 13.6007V12.8004Z" fill="#181425"/>
<path d="M20.1293 12.8004H19.3552V13.6007H20.1293V12.8004Z" fill="#181425"/>
<path d="M20.9038 12.8004H20.1293V13.6007L20.9038 13.601V12.8004Z" fill="#181425"/>
<path d="M21.6787 12.8004H20.9038V13.601L21.6787 13.6007V12.8004Z" fill="#181425"/>
<path d="M22.4518 12.8004H21.6772V13.601H22.4518V12.8004Z" fill="#181425"/>
<path d="M23.2263 12.8004H22.4518V13.601L23.2263 13.6007V12.8004Z" fill="#181425"/>
<path d="M23.9997 12.8004H23.2251V13.6007H23.9997V12.8004Z" fill="#181425"/>
<path d="M2.32294 13.6007H1.54834V14.4003H2.32294V13.6007Z" fill="#181425"/>
<path d="M3.09735 13.5999L2.32294 13.6007V14.4003H3.09735V13.5999Z" fill="#181425"/>
<path d="M3.87055 13.6007H3.09595V14.4003H3.87055V13.6007Z" fill="#181425"/>
<path d="M4.64545 13.5999L3.87055 13.6007V14.4003H4.64545V13.5999Z" fill="#181425"/>
<path d="M5.41986 13.6007L4.64545 13.5999V14.4003H5.41986V13.6007Z" fill="#181425"/>
<path d="M6.19403 13.6007H5.41986V14.4003H6.19403V13.6007Z" fill="#181425"/>
<path d="M6.9682 13.5999L6.19403 13.6007V14.4003H6.9682V13.5999Z" fill="#181425"/>
<path d="M7.74164 13.6007H6.96704V14.4003H7.74164V13.6007Z" fill="#181425"/>
<path d="M8.5163 13.5999L7.74164 13.6007V14.4003H8.5163V13.5999Z" fill="#181425"/>
<path d="M9.29071 13.6007L8.5163 13.5999V14.4003H9.29071V13.6007Z" fill="#181425"/>
<path d="M10.0649 13.6007H9.29071V14.4003H10.0649V13.6007Z" fill="#181425"/>
<path d="M10.8391 13.5999L10.0649 13.6007V14.4003H10.8391V13.5999Z" fill="#181425"/>
<path d="M11.614 13.6007L10.8391 13.5999V14.4003H11.614V13.6007Z" fill="#181425"/>
<path d="M12.3874 13.6007H11.6128V14.4003H12.3874V13.6007Z" fill="#181425"/>
<path d="M13.1618 13.6007H12.3874V14.4003H13.1618V13.6007Z" fill="#181425"/>
<path d="M13.9352 13.6007H13.1606V14.4003H13.9352V13.6007Z" fill="#181425"/>
<path d="M14.7101 13.5999L13.9352 13.6007V14.4003H14.7101V13.5999Z" fill="#181425"/>
<path d="M15.4843 13.6007L14.7101 13.5999V14.4003H15.4843V13.6007Z" fill="#181425"/>
<path d="M16.2585 13.6007H15.4843V14.4003H16.2585V13.6007Z" fill="#181425"/>
<path d="M17.0329 13.5999L16.2585 13.6007V14.4003H17.0329V13.5999Z" fill="#181425"/>
<path d="M17.8076 13.6007L17.0329 13.5999V14.4003H17.8076V13.6007Z" fill="#181425"/>
<path d="M18.581 13.5999H17.8064V14.4003H18.581V13.5999Z" fill="#181425"/>
<path d="M19.3552 13.6007L18.581 13.5999V14.4003H19.3552V13.6007Z" fill="#181425"/>
<path d="M20.1293 13.6007H19.3552V14.4003H20.1293V13.6007Z" fill="#181425"/>
<path d="M20.9038 13.5999L20.1293 13.6007V14.4003H20.9038V13.5999Z" fill="#181425"/>
<path d="M21.6787 13.6007L20.9038 13.5999V14.4003H21.6787V13.6007Z" fill="#181425"/>
<path d="M22.4518 13.5999H21.6772V14.4003H22.4518V13.5999Z" fill="#181425"/>
<path d="M23.2263 13.6007L22.4518 13.5999V14.4003H23.2263V13.6007Z" fill="#181425"/>
<path d="M23.9997 13.6007H23.2251V14.4003H23.9997V13.6007Z" fill="#181425"/>
<path d="M3.09735 14.4003H2.32294L2.32275 15.2006H3.09735V14.4003Z" fill="#181425"/>
<path d="M3.87055 14.4003H3.09595V15.2006H3.87055V14.4003Z" fill="#181425"/>
<path d="M4.64545 14.4003H3.87055V15.2006H4.64545V14.4003Z" fill="#181425"/>
<path d="M5.41986 14.4003H4.64545V15.2006H5.41986V14.4003Z" fill="#181425"/>
<path d="M6.19403 14.4003H5.41986V15.2006H6.19403V14.4003Z" fill="#181425"/>
<path d="M6.9682 14.4003H6.19403V15.2006H6.9682V14.4003Z" fill="#181425"/>
<path d="M7.74164 14.4003H6.96704V15.2006H7.74164V14.4003Z" fill="#181425"/>
<path d="M8.5163 14.4003H7.74164V15.2006H8.5163V14.4003Z" fill="#181425"/>
<path d="M9.29071 14.4003H8.5163V15.2006H9.29071V14.4003Z" fill="#181425"/>
<path d="M10.0649 14.4003H9.29071V15.2006H10.0649V14.4003Z" fill="#181425"/>
<path d="M10.8391 14.4003H10.0649V15.2006H10.8391V14.4003Z" fill="#181425"/>
<path d="M11.614 14.4003H10.8391V15.2006H11.614V14.4003Z" fill="#181425"/>
<path d="M12.3874 14.4003H11.6128V15.2006H12.3874V14.4003Z" fill="#181425"/>
<path d="M13.1618 14.4003H12.3874V15.2006H13.1618V14.4003Z" fill="#181425"/>
<path d="M13.9352 14.4003H13.1606V15.2006H13.9352V14.4003Z" fill="#181425"/>
<path d="M14.7101 14.4003H13.9352V15.2006H14.7101V14.4003Z" fill="#181425"/>
<path d="M15.4843 14.4003H14.7101V15.2006H15.4843V14.4003Z" fill="#181425"/>
<path d="M16.2585 14.4003H15.4843V15.2006H16.2585V14.4003Z" fill="#181425"/>
<path d="M17.0329 14.4003H16.2585V15.2006H17.0329V14.4003Z" fill="#181425"/>
<path d="M17.8076 14.4003H17.0329V15.2006H17.8076V14.4003Z" fill="#181425"/>
<path d="M18.581 14.4003H17.8064V15.2006H18.581V14.4003Z" fill="#181425"/>
<path d="M19.3552 14.4003H18.581V15.2006H19.3552V14.4003Z" fill="#181425"/>
<path d="M20.1293 14.4003H19.3552V15.2006H20.1293V14.4003Z" fill="#181425"/>
<path d="M20.9038 14.4003H20.1293V15.2006H20.9038V14.4003Z" fill="#181425"/>
<path d="M21.6787 14.4003H20.9038V15.2006H21.6787V14.4003Z" fill="#181425"/>
<path d="M22.4518 14.4003H21.6772V15.2006H22.4518V14.4003Z" fill="#181425"/>
<path d="M23.2263 14.4003H22.4518V15.2006H23.2263V14.4003Z" fill="#181425"/>
<path d="M23.9997 14.4003H23.2251V15.2006H23.9997V14.4003Z" fill="#181425"/>
<path d="M3.09735 15.2006H2.32275V16.0011H3.09735V15.2006Z" fill="#181425"/>
<path d="M3.87055 15.2006H3.09595V16.0011H3.87055V15.2006Z" fill="#181425"/>
<path d="M4.64545 15.2006H3.87055V16.0011H4.64545V15.2006Z" fill="#181425"/>
<path d="M5.41986 15.2006H4.64545V16.0011H5.41986V15.2006Z" fill="#181425"/>
<path d="M6.19403 15.2006H5.41986V16.0011H6.19403V15.2006Z" fill="#181425"/>
<path d="M6.9682 15.2006H6.19403V16.0011H6.9682V15.2006Z" fill="#181425"/>
<path d="M7.74164 15.2006H6.96704V16.0011H7.74164V15.2006Z" fill="#181425"/>
<path d="M8.5163 15.2006H7.74164V16.0011H8.5163V15.2006Z" fill="#181425"/>
<path d="M9.29071 15.2006H8.5163V16.0011H9.29071V15.2006Z" fill="#181425"/>
<path d="M10.0649 15.2006H9.29071V16.0011H10.0649V15.2006Z" fill="#181425"/>
<path d="M10.8391 15.2006H10.0649V16.0011H10.8391V15.2006Z" fill="#181425"/>
<path d="M11.614 15.2006H10.8391V16.0011H11.614V15.2006Z" fill="#181425"/>
<path d="M12.3874 15.2006H11.6128V16.0011H12.3874V15.2006Z" fill="#181425"/>
<path d="M13.1618 15.2006H12.3874V16.0011H13.1618V15.2006Z" fill="#181425"/>
<path d="M13.9352 15.2006H13.1606V16.0011H13.9352V15.2006Z" fill="#181425"/>
<path d="M14.7101 15.2006H13.9352V16.0011H14.7101V15.2006Z" fill="#181425"/>
<path d="M15.4843 15.2006H14.7101V16.0011H15.4843V15.2006Z" fill="#181425"/>
<path d="M16.2585 15.2006H15.4843V16.0011H16.2585V15.2006Z" fill="#181425"/>
<path d="M17.0329 15.2006H16.2585V16.0011H17.0329V15.2006Z" fill="#181425"/>
<path d="M17.8076 15.2006H17.0329V16.0011H17.8076V15.2006Z" fill="#181425"/>
<path d="M18.581 15.2006H17.8064V16.0011H18.581V15.2006Z" fill="#181425"/>
<path d="M19.3552 15.2006H18.581V16.0011H19.3552V15.2006Z" fill="#181425"/>
<path d="M20.1293 15.2006H19.3552V16.0011H20.1293V15.2006Z" fill="#181425"/>
<path d="M20.9038 15.2006H20.1293V16.0011H20.9038V15.2006Z" fill="#181425"/>
<path d="M21.6787 15.2006H20.9038V16.0011H21.6787V15.2006Z" fill="#181425"/>
<path d="M22.4518 15.2006H21.6772V16.0011H22.4518V15.2006Z" fill="#181425"/>
<path d="M23.2263 15.2006H22.4518V16.0011H23.2263V15.2006Z" fill="#181425"/>
<path d="M23.9997 15.2006H23.2251V16.0011H23.9997V15.2006Z" fill="#181425"/>
<path d="M3.09735 16H2.32275V16.8004H3.09735V16Z" fill="#181425"/>
<path d="M3.87055 16H3.09595V16.8004H3.87055V16Z" fill="#181425"/>
<path d="M4.64545 16H3.87055V16.8004H4.64545V16Z" fill="#181425"/>
<path d="M5.41986 16H4.64545V16.8004H5.41986V16Z" fill="#181425"/>
<path d="M6.19403 16H5.41986V16.8004H6.19403V16Z" fill="#181425"/>
<path d="M6.9682 16H6.19403V16.8004H6.9682V16Z" fill="#181425"/>
<path d="M7.74164 16H6.96704V16.8004H7.74164V16Z" fill="#181425"/>
<path d="M8.5163 16H7.74164V16.8004H8.5163V16Z" fill="#181425"/>
<path d="M9.29071 16H8.5163V16.8004H9.29071V16Z" fill="#181425"/>
<path d="M10.0649 16H9.29071V16.8004H10.0649V16Z" fill="#181425"/>
<path d="M10.8391 16H10.0649V16.8004H10.8391V16Z" fill="#181425"/>
<path d="M11.614 16H10.8391V16.8004H11.614V16Z" fill="#181425"/>
<path d="M12.3874 16H11.6128V16.8004H12.3874V16Z" fill="#181425"/>
<path d="M13.1618 16H12.3874V16.8004H13.1618V16Z" fill="#181425"/>
<path d="M13.9352 16H13.1606V16.8004H13.9352V16Z" fill="#181425"/>
<path d="M14.7101 16H13.9352V16.8004H14.7101V16Z" fill="#181425"/>
<path d="M15.4843 16H14.7101V16.8004H15.4843V16Z" fill="#181425"/>
<path d="M16.2585 16H15.4843V16.8004H16.2585V16Z" fill="#181425"/>
<path d="M17.0329 16H16.2585V16.8004H17.0329V16Z" fill="#181425"/>
<path d="M17.8076 16H17.0329V16.8004H17.8076V16Z" fill="#181425"/>
<path d="M18.581 16H17.8064V16.8004H18.581V16Z" fill="#181425"/>
<path d="M19.3552 16H18.581V16.8004H19.3552V16Z" fill="#181425"/>
<path d="M20.1293 16H19.3552V16.8004H20.1293V16Z" fill="#181425"/>
<path d="M20.9038 16H20.1293V16.8004H20.9038V16Z" fill="#181425"/>
<path d="M21.6787 16H20.9038V16.8004H21.6787V16Z" fill="#181425"/>
<path d="M22.4518 16H21.6772V16.8004H22.4518V16Z" fill="#181425"/>
<path d="M23.2263 16H22.4518V16.8004H23.2263V16Z" fill="#181425"/>
<path d="M23.9997 16H23.2251V16.8004H23.9997V16Z" fill="#181425"/>
<path d="M3.87055 16.8004H3.09595V17.6007H3.87055V16.8004Z" fill="#181425"/>
<path d="M4.64545 16.8004H3.87055V17.6007L4.64545 17.601V16.8004Z" fill="#181425"/>
<path d="M5.41986 16.8004H4.64545V17.601L5.41986 17.6007V16.8004Z" fill="#181425"/>
<path d="M6.19403 16.8004H5.41986V17.6007H6.19403V16.8004Z" fill="#181425"/>
<path d="M6.9682 16.8004H6.19403V17.6007L6.9682 17.601V16.8004Z" fill="#181425"/>
<path d="M7.74164 16.8004H6.96704V17.6007H7.74164V16.8004Z" fill="#181425"/>
<path d="M8.5163 16.8004H7.74164V17.6007L8.5163 17.601V16.8004Z" fill="#181425"/>
<path d="M9.29071 16.8004H8.5163V17.601L9.29071 17.6007V16.8004Z" fill="#181425"/>
<path d="M10.0649 16.8004H9.29071V17.6007H10.0649V16.8004Z" fill="#181425"/>
<path d="M10.8391 16.8004H10.0649V17.6007L10.8391 17.601V16.8004Z" fill="#181425"/>
<path d="M11.614 16.8004H10.8391V17.601L11.614 17.6007V16.8004Z" fill="#181425"/>
<path d="M12.3874 16.8004H11.6128V17.6007H12.3874V16.8004Z" fill="#181425"/>
<path d="M13.1618 16.8004H12.3874V17.6007H13.1618V16.8004Z" fill="#181425"/>
<path d="M13.9352 16.8004H13.1606V17.6007H13.9352V16.8004Z" fill="#181425"/>
<path d="M14.7101 16.8004H13.9352V17.6007L14.7101 17.601V16.8004Z" fill="#181425"/>
<path d="M15.4843 16.8004H14.7101V17.601L15.4843 17.6007V16.8004Z" fill="#181425"/>
<path d="M16.2585 16.8004H15.4843V17.6007H16.2585V16.8004Z" fill="#181425"/>
<path d="M17.0329 16.8004H16.2585V17.6007L17.0329 17.601V16.8004Z" fill="#181425"/>
<path d="M17.8076 16.8004H17.0329V17.601L17.8076 17.6007V16.8004Z" fill="#181425"/>
<path d="M18.581 16.8004H17.8064V17.601H18.581V16.8004Z" fill="#181425"/>
<path d="M19.3552 16.8004H18.581V17.601L19.3552 17.6007V16.8004Z" fill="#181425"/>
<path d="M20.1293 16.8004H19.3552V17.6007H20.1293V16.8004Z" fill="#181425"/>
<path d="M20.9038 16.8004H20.1293V17.6007L20.9038 17.601V16.8004Z" fill="#181425"/>
<path d="M21.6787 16.8004H20.9038V17.601L21.6787 17.6007V16.8004Z" fill="#181425"/>
<path d="M22.4518 16.8004H21.6772V17.601H22.4518V16.8004Z" fill="#181425"/>
<path d="M23.2263 16.8004H22.4518V17.601L23.2263 17.6007V16.8004Z" fill="#181425"/>
<path d="M23.9997 16.8004H23.2251V17.6007H23.9997V16.8004Z" fill="#181425"/>
<path d="M3.87055 17.6007H3.09595V18.4015H3.87055V17.6007Z" fill="#181425"/>
<path d="M4.64545 17.601L3.87055 17.6007V18.4015L4.64545 18.4013V17.601Z" fill="#181425"/>
<path d="M5.41986 17.6007L4.64545 17.601V18.4013L5.41986 18.4015V17.6007Z" fill="#181425"/>
<path d="M6.19403 17.6007H5.41986V18.4015H6.19403V17.6007Z" fill="#181425"/>
<path d="M6.9682 17.601L6.19403 17.6007V18.4015L6.9682 18.4013V17.601Z" fill="#181425"/>
<path d="M7.74164 17.6007H6.96704V18.4015H7.74164V17.6007Z" fill="#181425"/>
<path d="M8.5163 17.601L7.74164 17.6007V18.4015L8.5163 18.4013V17.601Z" fill="#181425"/>
<path d="M9.29071 17.6007L8.5163 17.601V18.4013L9.29071 18.4015V17.6007Z" fill="#181425"/>
<path d="M10.0649 17.6007H9.29071V18.4015H10.0649V17.6007Z" fill="#181425"/>
<path d="M10.8391 17.601L10.0649 17.6007V18.4015L10.8391 18.4013V17.601Z" fill="#181425"/>
<path d="M11.614 17.6007L10.8391 17.601V18.4013L11.614 18.4015V17.6007Z" fill="#181425"/>
<path d="M12.3874 17.6007H11.6128V18.4015H12.3874V17.6007Z" fill="#181425"/>
<path d="M13.1618 17.6007H12.3874V18.4015H13.1618V17.6007Z" fill="#181425"/>
<path d="M13.9352 17.6007H13.1606V18.4015H13.9352V17.6007Z" fill="#181425"/>
<path d="M14.7101 17.601L13.9352 17.6007V18.4015L14.7101 18.4013V17.601Z" fill="#181425"/>
<path d="M15.4843 17.6007L14.7101 17.601V18.4013L15.4843 18.4015V17.6007Z" fill="#181425"/>
<path d="M16.2585 17.6007H15.4843V18.4015H16.2585V17.6007Z" fill="#181425"/>
<path d="M17.0329 17.601L16.2585 17.6007V18.4015L17.0329 18.4013V17.601Z" fill="#181425"/>
<path d="M17.8076 17.6007L17.0329 17.601V18.4013L17.8076 18.4015V17.6007Z" fill="#181425"/>
<path d="M18.581 17.601H17.8064V18.4013H18.581V17.601Z" fill="#181425"/>
<path d="M19.3552 17.6007L18.581 17.601V18.4013L19.3552 18.4015V17.6007Z" fill="#181425"/>
<path d="M20.1293 17.6007H19.3552V18.4015H20.1293V17.6007Z" fill="#181425"/>
<path d="M20.9038 17.601L20.1293 17.6007V18.4015L20.9038 18.4013V17.601Z" fill="#181425"/>
<path d="M21.6787 17.6007L20.9038 17.601V18.4013L21.6787 18.4015V17.6007Z" fill="#181425"/>
<path d="M22.4518 17.601H21.6772V18.4013H22.4518V17.601Z" fill="#181425"/>
<path d="M23.2263 17.6007L22.4518 17.601V18.4013L23.2263 18.4015V17.6007Z" fill="#181425"/>
<path d="M23.9997 17.6007H23.2251V18.4015H23.9997V17.6007Z" fill="#181425"/>
<path d="M3.87055 18.4001H3.09595V19.2006H3.87055V18.4001Z" fill="#181425"/>
<path d="M4.64545 18.4001H3.87055V19.2006H4.64545V18.4001Z" fill="#181425"/>
<path d="M5.41986 18.4001H4.64545V19.2006H5.41986V18.4001Z" fill="#181425"/>
<path d="M6.19403 18.4001H5.41986V19.2006H6.19403V18.4001Z" fill="#181425"/>
<path d="M6.9682 18.4001H6.19403V19.2006H6.9682V18.4001Z" fill="#181425"/>
<path d="M7.74164 18.4001H6.96704V19.2006H7.74164V18.4001Z" fill="#181425"/>
<path d="M8.5163 18.4001H7.74164V19.2006H8.5163V18.4001Z" fill="#181425"/>
<path d="M9.29071 18.4001H8.5163V19.2006H9.29071V18.4001Z" fill="#181425"/>
<path d="M10.0649 18.4001H9.29071V19.2006H10.0649V18.4001Z" fill="#181425"/>
<path d="M10.8391 18.4001H10.0649V19.2006H10.8391V18.4001Z" fill="#181425"/>
<path d="M11.614 18.4001H10.8391V19.2006H11.614V18.4001Z" fill="#181425"/>
<path d="M12.3874 18.4001H11.6128V19.2006H12.3874V18.4001Z" fill="#181425"/>
<path d="M13.1618 18.4001H12.3874V19.2006H13.1618V18.4001Z" fill="#181425"/>
<path d="M13.9352 18.4001H13.1606V19.2006H13.9352V18.4001Z" fill="#181425"/>
<path d="M14.7101 18.4001H13.9352V19.2006H14.7101V18.4001Z" fill="#181425"/>
<path d="M15.4843 18.4001H14.7101V19.2006H15.4843V18.4001Z" fill="#181425"/>
<path d="M16.2585 18.4001H15.4843V19.2006H16.2585V18.4001Z" fill="#181425"/>
<path d="M17.0329 18.4001H16.2585V19.2006H17.0329V18.4001Z" fill="#181425"/>
<path d="M17.8076 18.4001H17.0329V19.2006H17.8076V18.4001Z" fill="#181425"/>
<path d="M18.581 18.4001H17.8064V19.2006H18.581V18.4001Z" fill="#181425"/>
<path d="M19.3552 18.4001H18.581V19.2006H19.3552V18.4001Z" fill="#181425"/>
<path d="M20.1293 18.4001H19.3552V19.2006H20.1293V18.4001Z" fill="#181425"/>
<path d="M20.9038 18.4001H20.1293V19.2006H20.9038V18.4001Z" fill="#181425"/>
<path d="M21.6787 18.4001H20.9038V19.2006H21.6787V18.4001Z" fill="#181425"/>
<path d="M22.4518 18.4001H21.6772V19.2006H22.4518V18.4001Z" fill="#181425"/>
<path d="M23.2263 18.4001H22.4518V19.2006H23.2263V18.4001Z" fill="#181425"/>
<path d="M23.9997 18.4001H23.2251V19.2006H23.9997V18.4001Z" fill="#181425"/>
<path d="M4.64545 19.2006H3.87055L3.87085 20.0011H4.64545V19.2006Z" fill="#181425"/>
<path d="M5.41986 19.2006H4.64545V20.0011H5.41986V19.2006Z" fill="#181425"/>
<path d="M6.19403 19.2006H5.41986V20.0011H6.19403V19.2006Z" fill="#181425"/>
<path d="M6.9682 19.2006H6.19403V20.0011H6.9682V19.2006Z" fill="#181425"/>
<path d="M7.74164 19.2006H6.96704V20.0011H7.74164V19.2006Z" fill="#181425"/>
<path d="M8.5163 19.2006H7.74164V20.0011H8.5163V19.2006Z" fill="#181425"/>
<path d="M9.29071 19.2006H8.5163V20.0011H9.29071V19.2006Z" fill="#181425"/>
<path d="M10.0649 19.2006H9.29071V20.0011H10.0649V19.2006Z" fill="#181425"/>
<path d="M10.8391 19.2006H10.0649V20.0011H10.8391V19.2006Z" fill="#181425"/>
<path d="M11.614 19.2006H10.8391V20.0011H11.614V19.2006Z" fill="#181425"/>
<path d="M12.3874 19.2006H11.6128V20.0011H12.3874V19.2006Z" fill="#181425"/>
<path d="M13.1618 19.2006H12.3874V20.0011H13.1618V19.2006Z" fill="#181425"/>
<path d="M13.9352 19.2006H13.1606V20.0011H13.9352V19.2006Z" fill="#181425"/>
<path d="M14.7101 19.2006H13.9352V20.0011H14.7101V19.2006Z" fill="#181425"/>
<path d="M15.4843 19.2006H14.7101V20.0011H15.4843V19.2006Z" fill="#181425"/>
<path d="M16.2585 19.2006H15.4843V20.0011H16.2585V19.2006Z" fill="#181425"/>
<path d="M17.0329 19.2006H16.2585V20.0011H17.0329V19.2006Z" fill="#181425"/>
<path d="M17.8076 19.2006H17.0329V20.0011H17.8076V19.2006Z" fill="#181425"/>
<path d="M18.581 19.2006H17.8064V20.0011H18.581V19.2006Z" fill="#181425"/>
<path d="M19.3552 19.2006H18.581V20.0011H19.3552V19.2006Z" fill="#181425"/>
<path d="M20.1293 19.2006H19.3552V20.0011H20.1293V19.2006Z" fill="#181425"/>
<path d="M20.9038 19.2006H20.1293V20.0011H20.9038V19.2006Z" fill="#181425"/>
<path d="M21.6787 19.2006H20.9038V20.0011H21.6787V19.2006Z" fill="#181425"/>
<path d="M22.4518 19.2006H21.6772V20.0011H22.4518V19.2006Z" fill="#181425"/>
<path d="M23.2263 19.2006H22.4518V20.0011H23.2263V19.2006Z" fill="#181425"/>
</g>
</g>
<defs>
<clipPath id="clip0_901_14421">
<rect width="24" height="20" fill="white"/>
</clipPath>
</defs>
</svg>
