<svg width="48" height="49" viewBox="0 0 48 49" fill="none" xmlns="http://www.w3.org/2000/svg">
<g clip-path="url(#clip0_909_36417)">
<path d="M24.7497 24.5751C28.3171 24.5751 31.2143 21.5298 31.2143 17.7897C31.2143 14.0496 28.313 11 24.7497 11C21.1865 11 18.2852 14.0453 18.2852 17.7854C18.2852 21.5255 21.1865 24.5708 24.7497 24.5708V24.5751ZM24.7497 14.1911C26.6376 14.1911 28.1782 15.8038 28.1782 17.7897C28.1782 19.7755 26.6417 21.3882 24.7497 21.3882C22.8578 21.3882 21.3213 19.7755 21.3213 17.7897C21.3213 15.8038 22.8578 14.1911 24.7497 14.1911Z" fill="#322642"/>
<path d="M34.3195 26.1187C33.8741 25.085 32.7176 24.6303 31.7328 25.0979C29.5303 26.1444 27.1807 26.672 24.7411 26.672C22.3016 26.672 19.9519 26.1401 17.7494 25.0979C16.7646 24.6303 15.6082 25.0893 15.1627 26.1187C14.7173 27.1523 15.1546 28.3662 16.1353 28.8337C17.6799 29.5671 19.2859 30.0947 20.9367 30.4121L17.3898 34.5854C16.6706 35.4303 16.7442 36.7257 17.5492 37.4805C18.3542 38.2354 19.5882 38.1582 20.3074 37.3133L24.737 32.0977L29.1666 37.3133C29.5507 37.7679 30.086 37.9995 30.6254 37.9995C31.0872 37.9995 31.553 37.828 31.9249 37.4805C32.7299 36.7257 32.7994 35.4303 32.0843 34.5854L28.5373 30.4121C30.1882 30.0947 31.79 29.5671 33.3388 28.8337C34.3236 28.3662 34.7567 27.1523 34.3113 26.1187H34.3195Z" fill="#322642"/>
</g>
<rect x="1.33333" y="1.83333" width="45.3333" height="45.3333" stroke="#322642" stroke-width="2.66667"/>
<defs>
<clipPath id="clip0_909_36417">
<rect width="19.5" height="27" fill="white" transform="translate(15 11)"/>
</clipPath>
</defs>
</svg>
