<svg viewBox="0 0 93 40" fill="none" xmlns="http://www.w3.org/2000/svg">
<rect y="11.1797" width="3.57692" height="17.8846" fill="white"/>
<rect x="93" y="29.0625" width="3.57692" height="17.8846" transform="rotate(-180 93 29.0625)" fill="white"/>
<rect x="3.57422" y="7.60352" width="3.57692" height="3.57692" fill="white"/>
<rect x="89.4258" y="32.6406" width="3.57692" height="3.57692" transform="rotate(-180 89.4258 32.6406)" fill="white"/>
<rect x="3.57422" y="29.0625" width="3.57692" height="3.57692" fill="white"/>
<rect x="89.4258" y="11.1797" width="3.57692" height="3.57692" transform="rotate(-180 89.4258 11.1797)" fill="white"/>
<rect x="85.8438" y="7.60352" width="3.57692" height="3.57692" transform="rotate(-180 85.8438 7.60352)" fill="white"/>
<rect x="10.7344" y="36.2188" width="71.5385" height="3.57692" fill="white"/>
<rect x="7.15625" y="4.02734" width="3.57692" height="3.57692" fill="white"/>
<rect x="85.8438" y="36.2188" width="3.57692" height="3.57692" transform="rotate(-180 85.8438 36.2188)" fill="white"/>
<rect x="10.7344" y="0.449219" width="71.5385" height="3.57692" fill="white"/>
<rect x="7.15625" y="32.6406" width="3.57692" height="3.57692" fill="white"/>
</svg>
