<svg width="48" height="49" viewBox="0 0 48 49" fill="none" xmlns="http://www.w3.org/2000/svg">
<g clip-path="url(#clip0_909_36421)">
<path d="M25.2857 30.6669C27.2254 31.96 29.6932 33.5672 31.1313 34.2852C32.5694 35.0031 34.0697 35.6721 34.6112 33.6447C35.1527 31.6133 37.4874 16.2549 37.4874 15.6022C37.4874 14.9495 37.6117 14.6069 36.9858 14.1867C36.36 13.7665 35.0284 14.15 34.3582 14.4151C33.6924 14.6844 14.1226 22.2391 12.4537 22.9775C10.8736 23.6791 10.5185 23.8749 10.5007 24.2339C10.4741 24.8662 11.1887 25.0905 11.4817 25.2007C11.8545 25.3435 16.1289 26.7182 17.0832 26.7345C18.0375 26.7508 18.8409 26.2939 19.7153 25.7187C20.5897 25.1436 29.9107 19.5509 30.3235 19.351C30.6653 19.1879 30.905 19.2246 31.0514 19.3959C31.2157 19.5835 31.1047 19.8691 30.8206 20.1139C30.541 20.3586 23.2883 26.7834 22.8178 27.2322C22.3118 27.7176 22.2852 28.1214 22.6181 28.5701C22.9332 28.9944 25.2901 30.671 25.2901 30.671L25.2857 30.6669Z" fill="#322642"/>
</g>
<rect x="1.33333" y="1.83333" width="45.3333" height="45.3333" stroke="#322642" stroke-width="2.66667"/>
<defs>
<clipPath id="clip0_909_36421">
<rect width="27" height="21" fill="white" transform="translate(10.5 14)"/>
</clipPath>
</defs>
</svg>
