<svg width="48" height="49" viewBox="0 0 48 49" fill="none" xmlns="http://www.w3.org/2000/svg">
<g clip-path="url(#clip0_909_36414)">
<path d="M13.3204 17.6589H11.0102C10.5084 17.6589 10.3819 18.262 10.608 18.8176C10.834 19.3731 13.8644 26.4803 16.8872 29.1946C19.9061 31.9089 21.7987 31.9485 24.1127 31.9843C26.6298 32.0239 24.7295 28.885 26.1585 28.6549C27.7714 28.3969 28.5568 31.6073 30.6218 31.9962C30.6218 31.9962 34.3686 31.9962 34.7211 31.9962C35.0736 31.9962 36.8665 31.7303 35.4835 29.9723C34.1005 28.2144 32.1887 26.3454 31.9895 26.0636C31.7903 25.7819 31.4608 25.4009 31.8976 24.8255C32.3343 24.2541 35.2651 19.9565 35.6099 19.3136C35.9547 18.6747 36.3378 17.6549 35.154 17.6549H30.8287C30.0586 17.6549 30.0471 17.6033 28.7714 20.6311C27.3883 23.9168 25.9823 24.9287 25.4344 23.885C25.1893 23.4168 25.4 18.1628 25.3272 17.9525C25.2544 17.7462 25.2007 16.9922 23.9633 16.9922C20.1245 16.9922 19.5537 17.016 18.9483 17.7938C18.4311 18.4565 20.4387 17.6708 20.4387 19.7263C20.4387 22.0239 20.5459 23.8493 19.9751 24.2104C19.4042 24.5755 18.4043 24.0795 16.2627 19.3096C15.4544 17.5081 15.7953 17.6589 13.3204 17.6589Z" fill="#322642"/>
</g>
<rect x="1.33333" y="1.83333" width="45.3333" height="45.3333" stroke="#322642" stroke-width="2.66667"/>
<defs>
<clipPath id="clip0_909_36414">
<rect width="25.5" height="15" fill="white" transform="translate(10.5 17)"/>
</clipPath>
</defs>
</svg>
